<svg width="20" height="20" viewBox="0 0 20 20" fill="none" xmlns="http://www.w3.org/2000/svg">
<path d="M18.4375 1.5625H1.5625C1.31409 1.56324 1.07606 1.66225 0.900407 1.83791C0.724752 2.01356 0.625742 2.25159 0.625 2.5V14.0625C0.625742 14.3109 0.724752 14.5489 0.900407 14.7246C1.07606 14.9002 1.31409 14.9993 1.5625 15H7.5V15.9375H6.25C6.16712 15.9375 6.08763 15.9704 6.02903 16.029C5.97042 16.0876 5.9375 16.1671 5.9375 16.25V18.125C5.9375 18.2079 5.97042 18.2874 6.02903 18.346C6.08763 18.4046 6.16712 18.4375 6.25 18.4375H13.75C13.8329 18.4375 13.9124 18.4046 13.971 18.346C14.0296 18.2874 14.0625 18.2079 14.0625 18.125V16.25C14.0625 16.1671 14.0296 16.0876 13.971 16.029C13.9124 15.9704 13.8329 15.9375 13.75 15.9375H12.5V15H18.4375C18.6859 14.9993 18.9239 14.9002 19.0996 14.7246C19.2752 14.5489 19.3743 14.3109 19.375 14.0625V2.5C19.3743 2.25159 19.2752 2.01356 19.0996 1.83791C18.9239 1.66225 18.6859 1.56324 18.4375 1.5625ZM13.4375 16.5625V17.8125H6.5625V16.5625H13.4375ZM8.125 15.9375V15H11.875V15.9375H8.125ZM18.75 14.0625C18.75 14.1454 18.7171 14.2249 18.6585 14.2835C18.5999 14.3421 18.5204 14.375 18.4375 14.375H1.5625C1.47962 14.375 1.40013 14.3421 1.34153 14.2835C1.28292 14.2249 1.25 14.1454 1.25 14.0625V13.4375H18.75V14.0625ZM18.75 12.8125H1.25V2.5C1.25 2.41712 1.28292 2.33763 1.34153 2.27903C1.40013 2.22042 1.47962 2.1875 1.5625 2.1875H18.4375C18.5204 2.1875 18.5999 2.22042 18.6585 2.27903C18.7171 2.33763 18.75 2.41712 18.75 2.5V12.8125Z" fill="#333333"/>
<path d="M10.9375 5.9375V4.375C10.9368 4.12659 10.8377 3.88856 10.6621 3.71291C10.4864 3.53725 10.2484 3.43824 10 3.4375H4.375C4.12659 3.43824 3.88856 3.53725 3.71291 3.71291C3.53725 3.88856 3.43824 4.12659 3.4375 4.375V5.9375C3.18909 5.93824 2.95106 6.03725 2.77541 6.21291C2.59975 6.38856 2.50074 6.62659 2.5 6.875V10C2.5 10.0829 2.53292 10.1624 2.59153 10.221C2.65013 10.2796 2.72962 10.3125 2.8125 10.3125V10.9375C2.81299 11.1031 2.879 11.2618 2.9961 11.3789C3.11321 11.496 3.27189 11.562 3.4375 11.5625H4.6875C4.85311 11.562 5.01179 11.496 5.1289 11.3789C5.246 11.2618 5.31201 11.1031 5.3125 10.9375V10.3125H9.0625V10.9375C9.06299 11.1031 9.129 11.2618 9.2461 11.3789C9.36321 11.496 9.52189 11.562 9.6875 11.5625H10.9375C11.1031 11.562 11.2618 11.496 11.3789 11.3789C11.496 11.2618 11.562 11.1031 11.5625 10.9375V10.3125C11.6454 10.3125 11.7249 10.2796 11.7835 10.221C11.8421 10.1624 11.875 10.0829 11.875 10V6.875C11.8743 6.62659 11.7752 6.38856 11.5996 6.21291C11.4239 6.03725 11.1859 5.93824 10.9375 5.9375ZM4.0625 4.375C4.0625 4.29212 4.09542 4.21263 4.15403 4.15403C4.21263 4.09542 4.29212 4.0625 4.375 4.0625H10C10.0829 4.0625 10.1624 4.09542 10.221 4.15403C10.2796 4.21263 10.3125 4.29212 10.3125 4.375V5.9375H4.0625V4.375ZM3.125 7.8125H4.6875V8.4375H3.125V7.8125ZM4.6875 10.9375H3.4375V10.3125H4.6875V10.9375ZM10.9375 10.9375H9.6875V10.3125H10.9375V10.9375ZM11.25 9.6875H3.125V9.0625H11.25V9.6875ZM5.3125 8.4375V7.8125H9.0625V8.4375H5.3125ZM11.25 8.4375H9.6875V7.8125H11.25V8.4375ZM11.25 7.1875H3.125V6.875C3.125 6.79212 3.15792 6.71263 3.21653 6.65403C3.27513 6.59542 3.35462 6.5625 3.4375 6.5625H10.9375C11.0204 6.5625 11.0999 6.59542 11.1585 6.65403C11.2171 6.71263 11.25 6.79212 11.25 6.875V7.1875ZM15.9375 5.3125H17.1875C17.2704 5.3125 17.3499 5.27958 17.4085 5.22097C17.4671 5.16237 17.5 5.08288 17.5 5V3.75C17.5 3.66712 17.4671 3.58763 17.4085 3.52903C17.3499 3.47042 17.2704 3.4375 17.1875 3.4375H15.9375C15.8546 3.4375 15.7751 3.47042 15.7165 3.52903C15.6579 3.58763 15.625 3.66712 15.625 3.75V5C15.625 5.08288 15.6579 5.16237 15.7165 5.22097C15.7751 5.27958 15.8546 5.3125 15.9375 5.3125ZM16.25 4.0625H16.875V4.6875H16.25V4.0625ZM15.9375 8.4375H17.1875C17.2704 8.4375 17.3499 8.40458 17.4085 8.34597C17.4671 8.28737 17.5 8.20788 17.5 8.125V6.875C17.5 6.79212 17.4671 6.71263 17.4085 6.65403C17.3499 6.59542 17.2704 6.5625 17.1875 6.5625H15.9375C15.8546 6.5625 15.7751 6.59542 15.7165 6.65403C15.6579 6.71263 15.625 6.79212 15.625 6.875V8.125C15.625 8.20788 15.6579 8.28737 15.7165 8.34597C15.7751 8.40458 15.8546 8.4375 15.9375 8.4375ZM16.25 7.1875H16.875V7.8125H16.25V7.1875ZM15.9375 11.5625H17.1875C17.2704 11.5625 17.3499 11.5296 17.4085 11.471C17.4671 11.4124 17.5 11.3329 17.5 11.25V10C17.5 9.91712 17.4671 9.83763 17.4085 9.77903C17.3499 9.72042 17.2704 9.6875 17.1875 9.6875H15.9375C15.8546 9.6875 15.7751 9.72042 15.7165 9.77903C15.6579 9.83763 15.625 9.91712 15.625 10V11.25C15.625 11.3329 15.6579 11.4124 15.7165 11.471C15.7751 11.5296 15.8546 11.5625 15.9375 11.5625ZM16.25 10.3125H16.875V10.9375H16.25V10.3125Z" fill="#333333"/>
<path d="M15 7.1875H12.5V7.8125H15V7.1875Z" fill="#333333"/>
<path d="M15 10.3125H12.5V10.9375H15V10.3125Z" fill="#333333"/>
<path d="M15 4.0625H12.5V4.6875H15V4.0625Z" fill="#333333"/>
</svg>
