<svg width="20" height="20" viewBox="0 0 20 20" fill="none" xmlns="http://www.w3.org/2000/svg">
<path d="M14.8031 12.528V16.7472C14.8031 17.7365 13.9618 18.5416 12.9281 18.5416H4.15308C3.11933 18.5416 2.27808 17.7365 2.27808 16.7472V2.39205C2.27808 1.40274 3.11933 0.597656 4.15308 0.597656H12.9281C13.9618 0.597656 14.8031 1.40274 14.8031 2.39205V8.37336L15.6181 7.97261C15.9231 7.82068 16.3012 7.93792 16.4593 8.2316L17.6531 10.4572C17.7287 10.5978 17.7425 10.7623 17.6918 10.913C17.6412 11.0643 17.53 11.19 17.3818 11.2623L14.8031 12.528ZM13.5531 8.98764V2.39205C13.5531 2.06248 13.2731 1.79392 12.9281 1.79392H4.15308C3.80808 1.79392 3.52808 2.06248 3.52808 2.39205V16.7472C3.52808 17.0768 3.80808 17.3453 4.15308 17.3453H12.9281C13.2731 17.3453 13.5531 17.0768 13.5531 16.7472V13.1506L10.0506 14.8685C9.97933 14.9037 9.90495 14.9247 9.82995 14.9319L9.82933 14.9325L7.3562 15.2417C7.30558 15.2483 7.25558 15.2513 7.20558 15.2513C6.78995 15.2513 6.41245 15.0335 6.21745 14.6705C5.9987 14.2637 6.0687 13.7852 6.39495 13.4509L8.07933 11.7283C8.1037 11.7008 8.1312 11.675 8.16058 11.6523C8.2037 11.6182 8.25058 11.5907 8.29933 11.5698L13.5531 8.98764ZM7.55995 14.0095L8.78558 13.8558L8.4037 13.1464L7.55995 14.0095ZM14.545 9.84416C14.5193 9.8621 14.4925 9.87825 14.4637 9.89261L9.41433 12.376L10.0318 13.5251L16.2556 10.471L15.6318 9.31003L14.545 9.84416ZM11.3281 9.10308H5.75308C5.40745 9.10308 5.12808 8.83511 5.12808 8.50495C5.12808 8.17478 5.40745 7.90682 5.75308 7.90682H11.3281C11.6737 7.90682 11.9531 8.17478 11.9531 8.50495C11.9531 8.83511 11.6737 9.10308 11.3281 9.10308ZM10.9518 7.03055H6.12995C5.78433 7.03055 5.50495 6.76259 5.50495 6.43242C5.50495 6.10225 5.78433 5.83429 6.12995 5.83429H10.9518C11.2975 5.83429 11.5768 6.10225 11.5768 6.43242C11.5768 6.76259 11.2975 7.03055 10.9518 7.03055ZM10.675 4.95803H6.4062C6.06058 4.95803 5.7812 4.69007 5.7812 4.3599C5.7812 4.02973 6.06058 3.76177 6.4062 3.76177H10.675C11.0206 3.76177 11.3 4.02973 11.3 4.3599C11.3 4.69007 11.0206 4.95803 10.675 4.95803Z" fill="#333333"/>
</svg>
