<svg width="13" height="20" viewBox="0 0 13 20" fill="none" xmlns="http://www.w3.org/2000/svg">
<path d="M11.3432 19.9988H1.6573C1.21803 19.9983 0.796903 19.8135 0.486297 19.485C0.175691 19.1566 0.000977929 18.7112 0.000488281 18.2467L0.000488281 3.11881C0.000488281 3.01504 0.0394691 2.91552 0.108855 2.84214C0.178242 2.76876 0.27235 2.72754 0.370477 2.72754H11.3432C11.7825 2.72806 12.2036 2.91282 12.5142 3.2413C12.8248 3.56977 12.9995 4.01513 13 4.47967V18.2467C12.9995 18.7112 12.8248 19.1566 12.5142 19.485C12.2036 19.8135 11.7825 19.9983 11.3432 19.9988ZM0.740465 3.51009V18.2467C0.740759 18.5037 0.837448 18.7502 1.00932 18.9319C1.1812 19.1137 1.41423 19.2159 1.6573 19.2162H11.3432C11.5863 19.2159 11.8193 19.1137 11.9912 18.9319C12.1631 18.7502 12.2598 18.5037 12.2601 18.2467V4.47967C12.2598 4.22261 12.1631 3.97618 11.9912 3.79441C11.8193 3.61265 11.5863 3.5104 11.3432 3.51009H0.740465Z" fill="#4123D0"/>
<path d="M0.370443 3.5098C0.280509 3.50992 0.193613 3.47539 0.126004 3.41267C0.0583949 3.34995 0.014702 3.26334 0.00309515 3.16903C-0.00851173 3.07471 0.0127621 2.97916 0.0629387 2.90023C0.113115 2.8213 0.188759 2.7644 0.275726 2.74016L9.83919 0.0607167C10.0794 -0.00878913 10.3315 -0.0187701 10.5759 0.0315499C10.8203 0.08187 11.0505 0.191135 11.2485 0.350848C11.4465 0.51056 11.6069 0.716416 11.7175 0.952408C11.828 1.1884 11.8855 1.44816 11.8856 1.7115V3.12009C11.8856 3.22387 11.8466 3.32339 11.7772 3.39677C11.7078 3.47014 11.6137 3.51137 11.5156 3.51137C11.4175 3.51137 11.3234 3.47014 11.254 3.39677C11.1846 3.32339 11.1456 3.22387 11.1456 3.12009V1.7115C11.1455 1.56835 11.1141 1.42716 11.0539 1.29894C10.9937 1.17071 10.9064 1.05891 10.7986 0.972237C10.6909 0.885565 10.5657 0.826364 10.4328 0.799243C10.2999 0.772122 10.1628 0.777815 10.0323 0.815877L0.46516 3.4965C0.434277 3.50531 0.402431 3.50978 0.370443 3.5098ZM6.50041 14.5023C3.94046 14.5023 1.85817 12.3014 1.85817 9.59608C1.85817 6.89081 3.94046 4.68989 6.50041 4.68989C9.06036 4.68989 11.1427 6.89081 11.1427 9.59608C11.1427 12.3014 9.05999 14.5023 6.50041 14.5023ZM6.50041 5.47243C5.72933 5.47305 4.97573 5.71543 4.33488 6.16892C3.69403 6.6224 3.19471 7.26664 2.90003 8.0202C2.60536 8.77375 2.52856 9.60278 2.67935 10.4025C2.83014 11.2022 3.20175 11.9366 3.74719 12.513C4.29264 13.0894 4.98743 13.4819 5.74374 13.6407C6.50005 13.7996 7.28392 13.7177 7.99626 13.4055C8.70859 13.0933 9.3174 12.5648 9.74574 11.8867C10.1741 11.2087 10.4027 10.4115 10.4027 9.59608C10.4011 8.50239 9.98939 7.45401 9.25782 6.68095C8.52626 5.90788 7.53461 5.47326 6.50041 5.47243Z" fill="#4123D0"/>
<path d="M6.50035 14.5018C5.80403 14.5018 5.17246 13.9541 4.72181 12.9571C4.31224 12.0525 4.08691 10.8591 4.08691 9.59564C4.08691 8.33222 4.31224 7.13883 4.72181 6.23421C5.17246 5.23841 5.80403 4.68945 6.50035 4.68945C7.19667 4.68945 7.82787 5.23724 8.27888 6.23421C8.68809 7.13883 8.91341 8.33222 8.91341 9.59564C8.91341 10.8591 8.68809 12.0525 8.27888 12.9571C7.82787 13.9533 7.1963 14.5018 6.50035 14.5018ZM6.50035 5.472C5.70894 5.472 4.82689 7.16583 4.82689 9.59564C4.82689 12.0255 5.70894 13.7193 6.50035 13.7193C7.29175 13.7193 8.17344 12.0259 8.17344 9.59564C8.17344 7.16544 7.29175 5.472 6.50035 5.472Z" fill="#4123D0"/>
<path d="M6.50029 12.1464C5.30486 12.1464 4.17528 11.9081 3.31839 11.4757C2.37603 10.9991 1.85693 10.3316 1.85693 9.59759C1.85693 8.86356 2.37492 8.19409 3.31839 7.71947C4.17417 7.28672 5.30375 7.04883 6.50029 7.04883C7.69683 7.04883 8.82493 7.28672 9.68219 7.71947C10.6245 8.19565 11.144 8.86356 11.144 9.59759C11.144 10.3316 10.626 11.0011 9.68219 11.4757C8.82493 11.9081 7.69609 12.1464 6.50029 12.1464ZM6.50029 7.82786C4.20044 7.82786 2.59802 8.75948 2.59802 9.59563C2.59802 10.4318 4.20044 11.3638 6.50029 11.3638C8.80014 11.3638 10.4026 10.4318 10.4026 9.59563C10.4026 8.75948 8.79977 7.82786 6.50029 7.82786Z" fill="#4123D0"/>
<path d="M6.50036 14.5018C6.40223 14.5018 6.30812 14.4606 6.23874 14.3872C6.16935 14.3139 6.13037 14.2143 6.13037 14.1106V5.08073C6.13037 4.97695 6.16935 4.87743 6.23874 4.80405C6.30812 4.73068 6.40223 4.68945 6.50036 4.68945C6.59849 4.68945 6.69259 4.73068 6.76198 4.80405C6.83137 4.87743 6.87035 4.97695 6.87035 5.08073V14.1106C6.87035 14.2143 6.83137 14.3139 6.76198 14.3872C6.69259 14.4606 6.59849 14.5018 6.50036 14.5018Z" fill="#4123D0"/>
<path d="M10.7724 9.98763H2.2279C2.12977 9.98763 2.03566 9.9464 1.96628 9.87303C1.89689 9.79965 1.85791 9.70013 1.85791 9.59635C1.85791 9.49258 1.89689 9.39306 1.96628 9.31968C2.03566 9.2463 2.12977 9.20508 2.2279 9.20508H10.7724C10.8705 9.20508 10.9646 9.2463 11.034 9.31968C11.1034 9.39306 11.1424 9.49258 11.1424 9.59635C11.1424 9.70013 11.1034 9.79965 11.034 9.87303C10.9646 9.9464 10.8705 9.98763 10.7724 9.98763ZM10.7724 16.4656H2.2279C2.12977 16.4656 2.03566 16.4243 1.96628 16.351C1.89689 16.2776 1.85791 16.1781 1.85791 16.0743C1.85791 15.9705 1.89689 15.871 1.96628 15.7976C2.03566 15.7242 2.12977 15.683 2.2279 15.683H10.7724C10.8705 15.683 10.9646 15.7242 11.034 15.7976C11.1034 15.871 11.1424 15.9705 11.1424 16.0743C11.1424 16.1781 11.1034 16.2776 11.034 16.351C10.9646 16.4243 10.8705 16.4656 10.7724 16.4656ZM10.7724 18.0365H2.2279C2.12977 18.0365 2.03566 17.9953 1.96628 17.9219C1.89689 17.8486 1.85791 17.749 1.85791 17.6453C1.85791 17.5415 1.89689 17.442 1.96628 17.3686C2.03566 17.2952 2.12977 17.254 2.2279 17.254H10.7724C10.8705 17.254 10.9646 17.2952 11.034 17.3686C11.1034 17.442 11.1424 17.5415 11.1424 17.6453C11.1424 17.749 11.1034 17.8486 11.034 17.9219C10.9646 17.9953 10.8705 18.0365 10.7724 18.0365Z" fill="#4123D0"/>
</svg>
