<svg width="20" height="20" viewBox="0 0 20 20" fill="none" xmlns="http://www.w3.org/2000/svg">
<g clip-path="url(#clip0_91_471)">
<path d="M19.6863 6.29102V15.918C19.6863 16.4368 19.2676 16.8554 18.7489 16.8554H1.25086C0.732188 16.8554 0.313477 16.4367 0.313477 15.918V6.29102H19.6863Z" fill="white"/>
<path d="M19.6863 6.29191V4.08191C19.6863 3.56426 19.2666 3.14453 18.7489 3.14453H1.25086C0.733164 3.14453 0.313477 3.56426 0.313477 4.08191V6.29191H19.6863Z" fill="white"/>
<path d="M5.2242 9.56996V10.043C5.2242 10.5255 4.83303 10.9167 4.35053 10.9167C3.86803 10.9167 3.47686 10.5255 3.47686 10.043V9.56996C3.47686 9.08746 3.86803 8.69629 4.35053 8.69629C4.83307 8.69629 5.2242 9.08742 5.2242 9.56996ZM6.49166 13.9427C5.06428 14.6192 3.63686 14.6192 2.20947 13.9427C2.20947 12.7594 3.16854 11.8004 4.34932 11.8004C5.53256 11.8004 6.49166 12.7594 6.49166 13.9427Z" fill="white"/>
<path d="M18.7489 2.83203H1.25082C0.561641 2.83203 0.000976562 3.39258 0.000976562 4.08188C0.000976562 8.27027 0.000976562 11.776 0.000976562 15.918C0.000976562 16.6073 0.56168 17.1679 1.25082 17.1679H18.7489C19.438 17.1679 19.9987 16.6073 19.9987 15.918C19.9987 11.7031 19.9987 8.48 19.9987 4.08188C19.9987 3.39258 19.438 2.83203 18.7489 2.83203ZM1.25082 3.45695H18.7489C19.0935 3.45695 19.3738 3.73738 19.3738 4.08188V5.97863H0.625898V4.08188C0.625898 3.73738 0.906172 3.45695 1.25082 3.45695ZM18.7489 16.543H1.25082C0.906172 16.543 0.625898 16.2625 0.625898 15.918V6.60449H19.3738V15.918C19.3738 16.2625 19.0935 16.543 18.7489 16.543Z" fill="#333333" stroke="#333333" stroke-width="0.2"/>
<path d="M4.35061 11.2289C5.00467 11.2289 5.5367 10.6968 5.5367 10.0429V9.56988C5.5367 8.91598 5.00467 8.38379 4.35061 8.38379C3.69654 8.38379 3.16436 8.91594 3.16436 9.56988V10.0429C3.16439 10.6968 3.69654 11.2289 4.35061 11.2289ZM3.78932 9.56988C3.78932 9.26047 4.04107 9.00871 4.35061 9.00871C4.66002 9.00871 4.91178 9.26047 4.91178 9.56988V10.0429C4.91178 10.3523 4.66002 10.604 4.35061 10.604C4.04103 10.604 3.78932 10.3523 3.78932 10.0429V9.56988ZM4.34924 11.4877C2.99701 11.4877 1.89697 12.5889 1.89697 13.9426C1.89697 14.0634 1.96654 14.1733 2.07564 14.2248C3.58432 14.9403 5.11588 14.9407 6.62545 14.2248C6.73455 14.1733 6.80412 14.0634 6.80412 13.9426C6.80412 12.589 5.70287 11.4877 4.34924 11.4877ZM2.53244 13.7457C2.63068 12.8288 3.40803 12.1126 4.34924 12.1126C5.29182 12.1126 6.07025 12.8288 6.16865 13.7457C4.94732 14.2718 3.75377 14.2718 2.53244 13.7457ZM8.05549 9.29496H11.9187C12.0913 9.29496 12.2312 9.1552 12.2312 8.9825C12.2312 8.80981 12.0913 8.67004 11.9187 8.67004H8.05549C7.88295 8.67004 7.74303 8.80981 7.74303 8.9825C7.74303 9.1552 7.88295 9.29496 8.05549 9.29496ZM17.7903 10.3971H8.05549C7.88295 10.3971 7.74303 10.5369 7.74303 10.7096C7.74303 10.8823 7.88295 11.0221 8.05549 11.0221H17.7903C17.9628 11.0221 18.1028 10.8823 18.1028 10.7096C18.1028 10.5369 17.9628 10.3971 17.7903 10.3971ZM8.05549 12.7492H11.9187C12.0913 12.7492 12.2312 12.6094 12.2312 12.4367C12.2312 12.264 12.0913 12.1243 11.9187 12.1243H8.05549C7.88295 12.1243 7.74303 12.264 7.74303 12.4367C7.74303 12.6094 7.88295 12.7492 8.05549 12.7492ZM17.7903 13.8513H8.05549C7.88295 13.8513 7.74303 13.9911 7.74303 14.1638C7.74303 14.3365 7.88295 14.4763 8.05549 14.4763H17.7903C17.9628 14.4763 18.1028 14.3365 18.1028 14.1638C18.1028 13.9911 17.9628 13.8513 17.7903 13.8513Z" fill="#333333" stroke="#333333" stroke-width="0.2"/>
</g>
<defs>
<clipPath id="clip0_91_471">
<rect width="20" height="20" fill="white"/>
</clipPath>
</defs>
</svg>
