<svg width="20" height="20" viewBox="0 0 20 20" fill="none" xmlns="http://www.w3.org/2000/svg">
<path d="M15.3431 19.9988H5.65717C5.21791 19.9983 4.79678 19.8135 4.48617 19.485C4.17557 19.1566 4.00086 18.7112 4.00037 18.2467V3.11881C4.00037 3.01504 4.03935 2.91552 4.10873 2.84214C4.17812 2.76876 4.27223 2.72754 4.37035 2.72754H15.3431C15.7824 2.72806 16.2035 2.91282 16.5141 3.2413C16.8247 3.56977 16.9994 4.01513 16.9999 4.47967V18.2467C16.9994 18.7112 16.8247 19.1566 16.5141 19.485C16.2035 19.8135 15.7824 19.9983 15.3431 19.9988ZM4.74034 3.51009V18.2467C4.74064 18.5037 4.83733 18.7502 5.0092 18.9319C5.18108 19.1137 5.41411 19.2159 5.65717 19.2162H15.3431C15.5862 19.2159 15.8192 19.1137 15.9911 18.9319C16.163 18.7502 16.2596 18.5037 16.2599 18.2467V4.47967C16.2596 4.22261 16.163 3.97618 15.9911 3.79441C15.8192 3.61265 15.5862 3.5104 15.3431 3.51009H4.74034Z" fill="#333333"/>
<path d="M4.37044 3.5098C4.28051 3.50992 4.19361 3.47539 4.126 3.41267C4.05839 3.34995 4.0147 3.26334 4.0031 3.16903C3.99149 3.07471 4.01276 2.97916 4.06294 2.90023C4.11312 2.8213 4.18876 2.7644 4.27573 2.74016L13.8392 0.0607167C14.0794 -0.00878913 14.3315 -0.0187701 14.5759 0.0315499C14.8203 0.08187 15.0505 0.191135 15.2485 0.350848C15.4465 0.51056 15.6069 0.716416 15.7175 0.952408C15.828 1.1884 15.8855 1.44816 15.8856 1.7115V3.12009C15.8856 3.22387 15.8466 3.32339 15.7772 3.39677C15.7078 3.47014 15.6137 3.51137 15.5156 3.51137C15.4175 3.51137 15.3234 3.47014 15.254 3.39677C15.1846 3.32339 15.1456 3.22387 15.1456 3.12009V1.7115C15.1455 1.56835 15.1141 1.42716 15.0539 1.29894C14.9937 1.17071 14.9064 1.05891 14.7986 0.972237C14.6909 0.885565 14.5657 0.826364 14.4328 0.799243C14.2999 0.772122 14.1628 0.777815 14.0323 0.815877L4.46516 3.4965C4.43428 3.50531 4.40243 3.50978 4.37044 3.5098ZM10.5004 14.5023C7.94046 14.5023 5.85817 12.3014 5.85817 9.59608C5.85817 6.89081 7.94046 4.68989 10.5004 4.68989C13.0604 4.68989 15.1427 6.89081 15.1427 9.59608C15.1427 12.3014 13.06 14.5023 10.5004 14.5023ZM10.5004 5.47243C9.72933 5.47305 8.97573 5.71543 8.33488 6.16892C7.69403 6.6224 7.19471 7.26664 6.90003 8.0202C6.60536 8.77375 6.52856 9.60278 6.67935 10.4025C6.83014 11.2022 7.20175 11.9366 7.74719 12.513C8.29264 13.0894 8.98743 13.4819 9.74374 13.6407C10.5001 13.7996 11.2839 13.7177 11.9963 13.4055C12.7086 13.0933 13.3174 12.5648 13.7457 11.8867C14.1741 11.2087 14.4027 10.4115 14.4027 9.59608C14.4011 8.50239 13.9894 7.45401 13.2578 6.68095C12.5263 5.90788 11.5346 5.47326 10.5004 5.47243Z" fill="#333333"/>
<path d="M10.5002 14.5018C9.80391 14.5018 9.17234 13.9541 8.72169 12.9571C8.31212 12.0525 8.08679 10.8591 8.08679 9.59564C8.08679 8.33222 8.31212 7.13883 8.72169 6.23421C9.17234 5.23841 9.80391 4.68945 10.5002 4.68945C11.1965 4.68945 11.8277 5.23724 12.2788 6.23421C12.688 7.13883 12.9133 8.33222 12.9133 9.59564C12.9133 10.8591 12.688 12.0525 12.2788 12.9571C11.8277 13.9533 11.1962 14.5018 10.5002 14.5018ZM10.5002 5.472C9.70882 5.472 8.82677 7.16583 8.82677 9.59564C8.82677 12.0255 9.70882 13.7193 10.5002 13.7193C11.2916 13.7193 12.1733 12.0259 12.1733 9.59564C12.1733 7.16544 11.2916 5.472 10.5002 5.472Z" fill="#333333"/>
<path d="M10.5003 12.1464C9.30486 12.1464 8.17528 11.9081 7.31839 11.4757C6.37603 10.9991 5.85693 10.3316 5.85693 9.59759C5.85693 8.86356 6.37492 8.19409 7.31839 7.71947C8.17417 7.28672 9.30375 7.04883 10.5003 7.04883C11.6968 7.04883 12.8249 7.28672 13.6822 7.71947C14.6245 8.19565 15.144 8.86356 15.144 9.59759C15.144 10.3316 14.626 11.0011 13.6822 11.4757C12.8249 11.9081 11.6961 12.1464 10.5003 12.1464ZM10.5003 7.82786C8.20044 7.82786 6.59802 8.75948 6.59802 9.59563C6.59802 10.4318 8.20044 11.3638 10.5003 11.3638C12.8001 11.3638 14.4026 10.4318 14.4026 9.59563C14.4026 8.75948 12.7998 7.82786 10.5003 7.82786Z" fill="#333333"/>
<path d="M10.5004 14.5018C10.4022 14.5018 10.3081 14.4606 10.2387 14.3872C10.1694 14.3139 10.1304 14.2143 10.1304 14.1106V5.08073C10.1304 4.97695 10.1694 4.87743 10.2387 4.80405C10.3081 4.73068 10.4022 4.68945 10.5004 4.68945C10.5985 4.68945 10.6926 4.73068 10.762 4.80405C10.8314 4.87743 10.8703 4.97695 10.8703 5.08073V14.1106C10.8703 14.2143 10.8314 14.3139 10.762 14.3872C10.6926 14.4606 10.5985 14.5018 10.5004 14.5018Z" fill="#333333"/>
<path d="M14.7725 9.98763H6.22802C6.12989 9.98763 6.03579 9.9464 5.9664 9.87303C5.89701 9.79965 5.85803 9.70013 5.85803 9.59635C5.85803 9.49258 5.89701 9.39306 5.9664 9.31968C6.03579 9.2463 6.12989 9.20508 6.22802 9.20508H14.7725C14.8707 9.20508 14.9648 9.2463 15.0342 9.31968C15.1035 9.39306 15.1425 9.49258 15.1425 9.59635C15.1425 9.70013 15.1035 9.79965 15.0342 9.87303C14.9648 9.9464 14.8707 9.98763 14.7725 9.98763ZM14.7725 16.4656H6.22802C6.12989 16.4656 6.03579 16.4243 5.9664 16.351C5.89701 16.2776 5.85803 16.1781 5.85803 16.0743C5.85803 15.9705 5.89701 15.871 5.9664 15.7976C6.03579 15.7242 6.12989 15.683 6.22802 15.683H14.7725C14.8707 15.683 14.9648 15.7242 15.0342 15.7976C15.1035 15.871 15.1425 15.9705 15.1425 16.0743C15.1425 16.1781 15.1035 16.2776 15.0342 16.351C14.9648 16.4243 14.8707 16.4656 14.7725 16.4656ZM14.7725 18.0365H6.22802C6.12989 18.0365 6.03579 17.9953 5.9664 17.9219C5.89701 17.8486 5.85803 17.749 5.85803 17.6453C5.85803 17.5415 5.89701 17.442 5.9664 17.3686C6.03579 17.2952 6.12989 17.254 6.22802 17.254H14.7725C14.8707 17.254 14.9648 17.2952 15.0342 17.3686C15.1035 17.442 15.1425 17.5415 15.1425 17.6453C15.1425 17.749 15.1035 17.8486 15.0342 17.9219C14.9648 17.9953 14.8707 18.0365 14.7725 18.0365Z" fill="#333333"/>
</svg>
