<svg width="20" height="20" viewBox="0 0 20 20" fill="none" xmlns="http://www.w3.org/2000/svg">
<path d="M18.0001 5.38429H2.00005C1.91518 5.38429 1.83379 5.35058 1.77378 5.29057C1.71377 5.23055 1.68005 5.14916 1.68005 5.06429C1.68005 4.97942 1.71377 4.89803 1.77378 4.83802C1.83379 4.77801 1.91518 4.74429 2.00005 4.74429H18.0001C18.0849 4.74429 18.1663 4.77801 18.2263 4.83802C18.2863 4.89803 18.3201 4.97942 18.3201 5.06429C18.3201 5.14916 18.2863 5.23055 18.2263 5.29057C18.1663 5.35058 18.0849 5.38429 18.0001 5.38429ZM12.7341 4.36949H12.6019C12.517 4.36949 12.4356 4.33578 12.3756 4.27577C12.3156 4.21575 12.2819 4.13436 12.2819 4.04949C12.2819 3.96462 12.3156 3.88323 12.3756 3.82322C12.4356 3.76321 12.517 3.72949 12.6019 3.72949H12.7341C12.8189 3.72949 12.9003 3.76321 12.9603 3.82322C13.0203 3.88323 13.0541 3.96462 13.0541 4.04949C13.0541 4.13436 13.0203 4.21575 12.9603 4.27577C12.9003 4.33578 12.8189 4.36949 12.7341 4.36949ZM14.3345 4.36949H14.2021C14.1172 4.36949 14.0358 4.33578 13.9758 4.27577C13.9158 4.21575 13.8821 4.13436 13.8821 4.04949C13.8821 3.96462 13.9158 3.88323 13.9758 3.82322C14.0358 3.76321 14.1172 3.72949 14.2021 3.72949H14.3345C14.4193 3.72949 14.5007 3.76321 14.5607 3.82322C14.6207 3.88323 14.6545 3.96462 14.6545 4.04949C14.6545 4.13436 14.6207 4.21575 14.5607 4.27577C14.5007 4.33578 14.4193 4.36949 14.3345 4.36949ZM15.9347 4.36949H15.8023C15.7174 4.36949 15.636 4.33578 15.576 4.27577C15.516 4.21575 15.4823 4.13436 15.4823 4.04949C15.4823 3.96462 15.516 3.88323 15.576 3.82322C15.636 3.76321 15.7174 3.72949 15.8023 3.72949H15.9347C16.0195 3.72949 16.1009 3.76321 16.1609 3.82322C16.2209 3.88323 16.2547 3.96462 16.2547 4.04949C16.2547 4.13436 16.2209 4.21575 16.1609 4.27577C16.1009 4.33578 16.0195 4.36949 15.9347 4.36949ZM16.4669 7.41129H12.3511C12.2662 7.41129 12.1848 7.37758 12.1248 7.31757C12.0648 7.25756 12.0311 7.17616 12.0311 7.09129C12.0311 7.00642 12.0648 6.92503 12.1248 6.86502C12.1848 6.80501 12.2662 6.77129 12.3511 6.77129H16.4669C16.5517 6.77129 16.6331 6.80501 16.6931 6.86502C16.7531 6.92503 16.7869 7.00642 16.7869 7.09129C16.7869 7.17616 16.7531 7.25756 16.6931 7.31757C16.6331 7.37758 16.5517 7.41129 16.4669 7.41129ZM16.4669 9.04449H12.3511C12.2662 9.04449 12.1848 9.01078 12.1248 8.95077C12.0648 8.89076 12.0311 8.80936 12.0311 8.72449C12.0311 8.63962 12.0648 8.55823 12.1248 8.49822C12.1848 8.43821 12.2662 8.40449 12.3511 8.40449H16.4669C16.5517 8.40449 16.6331 8.43821 16.6931 8.49822C16.7531 8.55823 16.7869 8.63962 16.7869 8.72449C16.7869 8.80936 16.7531 8.89076 16.6931 8.95077C16.6331 9.01078 16.5517 9.04449 16.4669 9.04449ZM16.4669 10.6777H12.3511C12.2662 10.6777 12.1848 10.644 12.1248 10.584C12.0648 10.524 12.0311 10.4426 12.0311 10.3577C12.0311 10.2728 12.0648 10.1914 12.1248 10.1314C12.1848 10.0714 12.2662 10.0377 12.3511 10.0377H16.4669C16.5517 10.0377 16.6331 10.0714 16.6931 10.1314C16.7531 10.1914 16.7869 10.2728 16.7869 10.3577C16.7869 10.4426 16.7531 10.524 16.6931 10.584C16.6331 10.644 16.5517 10.6777 16.4669 10.6777ZM16.4669 12.3111H12.3511C12.2662 12.3111 12.1848 12.2774 12.1248 12.2174C12.0648 12.1574 12.0311 12.076 12.0311 11.9911C12.0311 11.9062 12.0648 11.8248 12.1248 11.7648C12.1848 11.7048 12.2662 11.6711 12.3511 11.6711H16.4669C16.5517 11.6711 16.6331 11.7048 16.6931 11.7648C16.7531 11.8248 16.7869 11.9062 16.7869 11.9911C16.7869 12.076 16.7531 12.1574 16.6931 12.2174C16.6331 12.2774 16.5517 12.3111 16.4669 12.3111ZM11.1257 9.72669C11.0492 9.72685 10.9753 9.69944 10.9175 9.64949L7.32945 6.56949L3.74165 9.64949C3.70989 9.67764 3.67285 9.69919 3.63268 9.71289C3.59252 9.72659 3.55002 9.73216 3.50768 9.72928C3.46534 9.7264 3.424 9.71512 3.38605 9.69611C3.34811 9.6771 3.31433 9.65073 3.28667 9.61854C3.25902 9.58635 3.23804 9.54898 3.22497 9.5086C3.21189 9.46823 3.20698 9.42566 3.21051 9.38336C3.21405 9.34107 3.22596 9.29991 3.24556 9.26226C3.26515 9.22462 3.29204 9.19125 3.32465 9.16409L7.12105 5.90409C7.17909 5.85425 7.25305 5.82684 7.32955 5.82684C7.40605 5.82684 7.48002 5.85425 7.53805 5.90409L11.3343 9.16409C11.3838 9.2067 11.4191 9.26344 11.4354 9.32669C11.4517 9.38995 11.4483 9.45669 11.4256 9.51794C11.4029 9.5792 11.362 9.63203 11.3084 9.66935C11.2547 9.70667 11.191 9.72668 11.1257 9.72669Z" fill="#333333"/>
<path d="M10.517 13.2557H4.14202C4.05715 13.2557 3.97576 13.2219 3.91575 13.1619C3.85574 13.1019 3.82202 13.0205 3.82202 12.9357V8.88445C3.82202 8.79958 3.85574 8.71819 3.91575 8.65818C3.97576 8.59817 4.05715 8.56445 4.14202 8.56445C4.22689 8.56445 4.30828 8.59817 4.3683 8.65818C4.42831 8.71819 4.46202 8.79958 4.46202 8.88445V12.6157H10.517C10.6019 12.6157 10.6833 12.6494 10.7433 12.7094C10.8033 12.7694 10.837 12.8508 10.837 12.9357C10.837 13.0205 10.8033 13.1019 10.7433 13.1619C10.6833 13.2219 10.6019 13.2557 10.517 13.2557Z" fill="#333333"/>
<path d="M10.517 13.2557C10.4321 13.2557 10.3507 13.2219 10.2907 13.1619C10.2307 13.1019 10.197 13.0205 10.197 12.9357V8.88445C10.197 8.79958 10.2307 8.71819 10.2907 8.65818C10.3507 8.59817 10.4321 8.56445 10.517 8.56445C10.6018 8.56445 10.6832 8.59817 10.7432 8.65818C10.8032 8.71819 10.837 8.79958 10.837 8.88445V12.9357C10.837 13.0205 10.8032 13.1019 10.7432 13.1619C10.6832 13.2219 10.6018 13.2557 10.517 13.2557ZM8.36736 13.2555C8.28249 13.2555 8.2011 13.2217 8.14108 13.1617C8.08107 13.1017 8.04736 13.0203 8.04736 12.9355V10.3355H6.61156V12.9355C6.61156 13.0203 6.57784 13.1017 6.51783 13.1617C6.45782 13.2217 6.37643 13.2555 6.29156 13.2555C6.20669 13.2555 6.1253 13.2217 6.06528 13.1617C6.00527 13.1017 5.97156 13.0203 5.97156 12.9355V10.0155C5.97156 9.93058 6.00527 9.84919 6.06528 9.78918C6.1253 9.72917 6.20669 9.69545 6.29156 9.69545H8.36736C8.45223 9.69545 8.53362 9.72917 8.59363 9.78918C8.65364 9.84919 8.68736 9.93058 8.68736 10.0155V12.9355C8.68736 13.0203 8.65364 13.1017 8.59363 13.1617C8.53362 13.2217 8.45223 13.2555 8.36736 13.2555Z" fill="#333333"/>
<path d="M10 8.76031C9.91515 8.76031 9.83376 8.7266 9.77375 8.66658C9.71373 8.60657 9.68002 8.52518 9.68002 8.44031V6.56871H9.36002V7.61671C9.36002 7.70158 9.32631 7.78297 9.26629 7.84298C9.20628 7.903 9.12489 7.93671 9.04002 7.93671C8.95515 7.93671 8.87376 7.903 8.81375 7.84298C8.75373 7.78297 8.72002 7.70158 8.72002 7.61671V6.24871C8.72002 6.16384 8.75373 6.08245 8.81375 6.02244C8.87376 5.96242 8.95515 5.92871 9.04002 5.92871H10C10.0849 5.92871 10.1663 5.96242 10.2263 6.02244C10.2863 6.08245 10.32 6.16384 10.32 6.24871V8.44031C10.32 8.52518 10.2863 8.60657 10.2263 8.66658C10.1663 8.7266 10.0849 8.76031 10 8.76031ZM7.32942 9.47631C6.72062 9.47631 6.22522 8.99131 6.22522 8.39511C6.22522 7.79891 6.72062 7.31391 7.32942 7.31391C7.93822 7.31391 8.43362 7.79891 8.43362 8.39511C8.43362 8.99131 7.93842 9.47631 7.32942 9.47631ZM7.32942 7.95391C7.07362 7.95391 6.86522 8.15171 6.86522 8.39511C6.86522 8.63851 7.07362 8.83631 7.32942 8.83631C7.58522 8.83631 7.79362 8.63831 7.79362 8.39511C7.79362 8.15191 7.58542 7.95391 7.32942 7.95391Z" fill="#333333"/>
<path d="M16.6089 14.1878H3.39125C2.93756 14.1874 2.50259 14.0069 2.18178 13.6861C1.86097 13.3653 1.68053 12.9303 1.68005 12.4766V4.42604C1.68053 3.97235 1.86097 3.53738 2.18178 3.21657C2.50259 2.89576 2.93756 2.71532 3.39125 2.71484H16.6089C17.0625 2.71532 17.4975 2.89576 17.8183 3.21657C18.1391 3.53738 18.3196 3.97235 18.3201 4.42604V12.4766C18.3196 12.9303 18.1391 13.3653 17.8183 13.6861C17.4975 14.0069 17.0625 14.1874 16.6089 14.1878ZM3.39125 3.35484C3.10725 3.35516 2.83497 3.46812 2.63415 3.66894C2.43333 3.86976 2.32037 4.14204 2.32005 4.42604V12.4766C2.32037 12.7606 2.43333 13.0329 2.63415 13.2337C2.83497 13.4346 3.10725 13.5475 3.39125 13.5478H16.6089C16.8929 13.5475 17.1651 13.4346 17.366 13.2337C17.5668 13.0329 17.6797 12.7606 17.6801 12.4766V4.42604C17.6797 4.14204 17.5668 3.86976 17.366 3.66894C17.1651 3.46812 16.8929 3.35516 16.6089 3.35484H3.39125ZM13.1297 17.2856H6.86965C6.71638 17.2852 6.56951 17.2241 6.46113 17.1158C6.35275 17.0074 6.29168 16.8605 6.29125 16.7072V15.9202C6.29168 15.767 6.35275 15.6201 6.46113 15.5117C6.56951 15.4033 6.71638 15.3423 6.86965 15.3418H13.1297C13.2829 15.3423 13.4298 15.4033 13.5382 15.5117C13.6466 15.6201 13.7076 15.767 13.7081 15.9202V16.7066C13.7078 16.86 13.6468 17.007 13.5384 17.1156C13.43 17.2241 13.283 17.2852 13.1297 17.2856ZM6.93205 16.6456H13.0681V15.9824H6.93205V16.6456Z" fill="#333333"/>
<path d="M12.7488 15.9826C12.7092 15.9826 12.6701 15.9752 12.6332 15.961C12.198 15.7929 11.8106 15.5209 11.5046 15.1687C11.1987 14.8165 10.9836 14.3948 10.878 13.9404C10.8683 13.8994 10.8668 13.8569 10.8736 13.8153C10.8804 13.7738 10.8953 13.7339 10.9175 13.6982C10.9397 13.6624 10.9688 13.6313 11.003 13.6068C11.0372 13.5822 11.076 13.5647 11.117 13.5552C11.158 13.5456 11.2006 13.5443 11.2421 13.5512C11.2836 13.5582 11.3234 13.5732 11.3591 13.5956C11.3948 13.6179 11.4258 13.6471 11.4502 13.6814C11.4746 13.7157 11.492 13.7545 11.5014 13.7956C11.5833 14.1484 11.7504 14.4758 11.9879 14.7492C12.2255 15.0226 12.5263 15.2338 12.8642 15.3642C12.9338 15.3912 12.9918 15.4416 13.0281 15.5068C13.0645 15.5721 13.0769 15.6479 13.0632 15.7213C13.0495 15.7947 13.0106 15.861 12.9531 15.9087C12.8957 15.9564 12.8234 15.9826 12.7488 15.9826ZM7.25118 15.9826C7.17651 15.9826 7.10418 15.9565 7.04673 15.9088C6.98928 15.8611 6.95032 15.7948 6.9366 15.7214C6.92288 15.648 6.93526 15.5721 6.9716 15.5069C7.00794 15.4416 7.06595 15.3912 7.13558 15.3642C7.4735 15.2338 7.77437 15.0226 8.01195 14.7492C8.24952 14.4758 8.41659 14.1484 8.49858 13.7956C8.50796 13.7545 8.52535 13.7157 8.54977 13.6814C8.57418 13.6471 8.60513 13.6179 8.64084 13.5956C8.67655 13.5732 8.71632 13.5582 8.75786 13.5512C8.79941 13.5443 8.84191 13.5456 8.88294 13.5552C8.92397 13.5647 8.96271 13.5822 8.99695 13.6068C9.03119 13.6313 9.06024 13.6624 9.08245 13.6982C9.10466 13.7339 9.11958 13.7738 9.12636 13.8153C9.13315 13.8569 9.13166 13.8994 9.12198 13.9404C9.01641 14.3948 8.80124 14.8164 8.49526 15.1685C8.18928 15.5206 7.80178 15.7925 7.36658 15.9604C7.32981 15.9749 7.29069 15.9824 7.25118 15.9826Z" fill="#333333"/>
</svg>
