<svg width="108" height="100" viewBox="0 0 108 100" fill="none" xmlns="http://www.w3.org/2000/svg">
<g filter="url(#filter0_d_94_1456)">
<rect x="4" width="99.3789" height="92" rx="10" fill="#4123D0" fill-opacity="0.1" shape-rendering="crispEdges"/>
</g>
<path d="M38.375 49.4684H43.0625C43.2697 49.4684 43.4684 49.3861 43.6149 49.2395C43.7614 49.093 43.8438 48.8943 43.8438 48.6871V44.323L45.9586 42.2082L44.8539 41.1035L42.7391 43.2184H38.375C38.1678 43.2184 37.9691 43.3007 37.8226 43.4472C37.6761 43.5937 37.5938 43.7924 37.5938 43.9996V48.6871C37.5938 48.8943 37.6761 49.093 37.8226 49.2395C37.9691 49.3861 38.1678 49.4684 38.375 49.4684ZM39.1562 44.7809H41.1766L40.1664 45.791L41.2711 46.8957L42.2812 45.8855V47.9059H39.1562V44.7809Z" fill="#4123D0"/>
<path d="M38.375 57.2809H43.0625C43.2697 57.2809 43.4684 57.1986 43.6149 57.052C43.7614 56.9055 43.8438 56.7068 43.8438 56.4996V52.1355L45.9586 50.0207L44.8539 48.916L42.7391 51.0309H38.375C38.1678 51.0309 37.9691 51.1132 37.8226 51.2597C37.6761 51.4062 37.5938 51.6049 37.5938 51.8121V56.4996C37.5938 56.7068 37.6761 56.9055 37.8226 57.052C37.9691 57.1986 38.1678 57.2809 38.375 57.2809ZM39.1562 52.5934H41.1766L40.1664 53.6035L41.2711 54.7082L42.2812 53.698V55.7184H39.1562V52.5934Z" fill="#4123D0"/>
<path d="M38.375 65.0934H43.0625C43.2697 65.0934 43.4684 65.0111 43.6149 64.8645C43.7614 64.718 43.8438 64.5193 43.8438 64.3121V59.948L45.9586 57.8332L44.8539 56.7285L42.7391 58.8434H38.375C38.1678 58.8434 37.9691 58.9257 37.8226 59.0722C37.6761 59.2187 37.5938 59.4174 37.5938 59.6246V64.3121C37.5938 64.5193 37.6761 64.718 37.8226 64.8645C37.9691 65.0111 38.1678 65.0934 38.375 65.0934ZM39.1562 60.4059H41.1766L40.1664 61.416L41.2711 62.5207L42.2812 61.5105V63.5309H39.1562V60.4059ZM55.5625 49.4684H60.25C60.4572 49.4684 60.6559 49.3861 60.8024 49.2395C60.9489 49.093 61.0312 48.8943 61.0312 48.6871V44.323L63.1461 42.2082L62.0414 41.1035L59.9266 43.2184H55.5625C55.3553 43.2184 55.1566 43.3007 55.0101 43.4472C54.8636 43.5937 54.7812 43.7924 54.7812 43.9996V48.6871C54.7812 48.8943 54.8636 49.093 55.0101 49.2395C55.1566 49.3861 55.3553 49.4684 55.5625 49.4684ZM56.3438 44.7809H58.3641L57.3539 45.791L58.4586 46.8957L59.4688 45.8855V47.9059H56.3438V44.7809Z" fill="#4123D0"/>
<path d="M53.2188 44H46.968V45.5625H53.2188V44Z" fill="#4123D0"/>
<path d="M53.2188 47.125H45.4062V48.6875H53.2188V47.125Z" fill="#4123D0"/>
<path d="M53.2188 51.8125H46.968V53.375H53.2188V51.8125Z" fill="#4123D0"/>
<path d="M53.2188 54.9375H45.4062V56.5H53.2188V54.9375Z" fill="#4123D0"/>
<path d="M53.2188 59.625H46.968V61.1875H53.2188V59.625Z" fill="#4123D0"/>
<path d="M53.2188 62.75H45.4062V64.3125H53.2188V62.75Z" fill="#4123D0"/>
<path d="M70.4063 44H64.1555V45.5625H70.4063V44Z" fill="#4123D0"/>
<path d="M70.4062 47.125H62.5938V48.6875H70.4062V47.125Z" fill="#4123D0"/>
<path d="M70.4063 51.8125H64.1555V53.375H70.4063V51.8125Z" fill="#4123D0"/>
<path d="M70.4062 54.9375H62.5938V56.5H70.4062V54.9375Z" fill="#4123D0"/>
<path d="M63.1461 50.0211L62.0414 48.9164L59.9266 51.0312H55.5625C55.3553 51.0312 55.1566 51.1136 55.0101 51.2601C54.8636 51.4066 54.7812 51.6053 54.7812 51.8125V56.5C54.7812 56.7072 54.8636 56.9059 55.0101 57.0524C55.1566 57.1989 55.3553 57.2812 55.5625 57.2812H60.25C60.4572 57.2812 60.6559 57.1989 60.8024 57.0524C60.9489 56.9059 61.0312 56.7072 61.0312 56.5V52.1359L63.1461 50.0211ZM59.4688 55.7188H56.3438V52.5938H58.3641L57.3539 53.6039L58.4586 54.7086L59.4688 53.6984V55.7188ZM41.5703 36.8797C41.7294 37.7739 42.1955 38.5846 42.8884 39.172C43.5812 39.7593 44.4573 40.0865 45.3655 40.097C46.2737 40.1076 47.1571 39.8009 47.8634 39.2298C48.5697 38.6587 49.0546 37.8591 49.2344 36.9688H57.2031C57.3824 37.8518 57.8615 38.6457 58.5592 39.2159C59.2568 39.7862 60.1302 40.0977 61.0312 40.0977C61.9323 40.0977 62.8057 39.7862 63.5033 39.2159C64.201 38.6457 64.6801 37.8518 64.8594 36.9688H66.5C67.1216 36.9688 67.7177 36.7218 68.1573 36.2823C68.5968 35.8427 68.8438 35.2466 68.8438 34.625V30.7188C68.8437 30.5491 68.7884 30.384 68.6862 30.2486C68.584 30.1131 68.4405 30.0146 68.2773 29.968L63.0711 28.4836L60.232 24.5047C59.8782 24.0108 59.4118 23.6083 58.8715 23.3303C58.3312 23.0524 57.7326 22.907 57.125 22.9062H50.0938C48.8972 22.9063 47.7413 23.3405 46.8406 24.1281L42.2484 28.1469C42.0804 28.2939 41.8647 28.3749 41.6414 28.375C40.9826 28.3758 40.3509 28.6379 39.885 29.1038C39.4192 29.5697 39.1571 30.2013 39.1562 30.8602V33.8438C39.1579 34.5477 39.3971 35.2306 39.8353 35.7816C40.2734 36.3326 40.8848 36.7195 41.5703 36.8797ZM45.4062 38.5312C44.9427 38.5312 44.4896 38.3938 44.1041 38.1363C43.7187 37.8787 43.4183 37.5127 43.2409 37.0844C43.0635 36.6561 43.0171 36.1849 43.1075 35.7303C43.198 35.2756 43.4212 34.858 43.749 34.5302C44.0767 34.2024 44.4944 33.9792 44.949 33.8888C45.4036 33.7984 45.8749 33.8448 46.3032 34.0222C46.7314 34.1995 47.0975 34.5 47.355 34.8854C47.6125 35.2708 47.75 35.724 47.75 36.1875C47.75 36.8091 47.5031 37.4052 47.0635 37.8448C46.624 38.2843 46.0279 38.5312 45.4062 38.5312ZM61.0312 38.5312C60.5677 38.5312 60.1146 38.3938 59.7291 38.1363C59.3437 37.8787 59.0433 37.5127 58.8659 37.0844C58.6885 36.6561 58.6421 36.1849 58.7325 35.7303C58.823 35.2756 59.0462 34.858 59.374 34.5302C59.7017 34.2024 60.1194 33.9792 60.574 33.8888C61.0287 33.7984 61.4999 33.8448 61.9282 34.0222C62.3564 34.1995 62.7225 34.5 62.98 34.8854C63.2375 35.2708 63.375 35.724 63.375 36.1875C63.375 36.8091 63.1281 37.4052 62.6885 37.8448C62.249 38.2843 61.6529 38.5312 61.0312 38.5312ZM66.8906 31.5H67.2812V32.2812H66.8906C66.787 32.2812 66.6877 32.2401 66.6144 32.1668C66.5412 32.0936 66.5 31.9942 66.5 31.8906C66.5 31.787 66.5412 31.6877 66.6144 31.6144C66.6877 31.5412 66.787 31.5 66.8906 31.5ZM65.3156 30.7461C65.0709 31.0776 64.9385 31.4786 64.9375 31.8906C64.9375 32.4086 65.1433 32.9054 65.5096 33.2717C65.8758 33.638 66.3726 33.8438 66.8906 33.8438H67.2812V34.625C67.2812 34.8322 67.1989 35.0309 67.0524 35.1774C66.9059 35.3239 66.7072 35.4062 66.5 35.4062H64.8594C64.6801 34.5232 64.201 33.7293 63.5033 33.1591C62.8057 32.5888 61.9323 32.2773 61.0312 32.2773C60.1302 32.2773 59.2568 32.5888 58.5592 33.1591C57.8615 33.7293 57.3824 34.5232 57.2031 35.4062H49.2344C49.0582 34.5375 48.5913 33.7547 47.9106 33.1869C47.2299 32.6191 46.376 32.3002 45.4898 32.2827C44.6035 32.2652 43.7378 32.5503 43.0352 33.0908C42.3327 33.6313 41.8353 34.3951 41.625 35.2563C41.3552 35.1314 41.1267 34.9322 40.9661 34.682C40.8056 34.4318 40.7198 34.141 40.7188 33.8438V32.9516C41.3876 32.7789 41.9804 32.3894 42.4045 31.8441C42.8285 31.2988 43.0599 30.6283 43.0625 29.9375V29.8172L62.482 29.9375L65.3156 30.7461ZM58.9602 25.4125L61.0695 28.3656L54 28.3219V24.4688H57.125C57.4838 24.4691 57.8375 24.5548 58.1566 24.719C58.4757 24.8831 58.7512 25.1208 58.9602 25.4125ZM47.8664 25.3039C48.4831 24.7648 49.2746 24.468 50.0938 24.4688H52.4375V28.3125L44.4883 28.2633L47.8664 25.3039ZM41.5 29.9664C41.4943 30.2346 41.4194 30.4967 41.2825 30.7274C41.1456 30.958 40.9514 31.1494 40.7188 31.2828V30.8602C40.7208 30.6424 40.8007 30.4326 40.944 30.2687C41.0873 30.1048 41.2845 29.9976 41.5 29.9664Z" fill="#4123D0"/>
<path d="M57.9062 30.7188H55.5625V32.2812H57.9062V30.7188Z" fill="#4123D0"/>
<path d="M48.5312 30.7188H46.1875V32.2812H48.5312V30.7188Z" fill="#4123D0"/>
<path d="M36.8125 68.2188H65.7188C65.9259 68.2187 66.1246 68.1364 66.2711 67.9898L73.3023 60.9586C73.4489 60.8121 73.5312 60.6134 73.5312 60.4062V22.125C73.5312 21.5034 73.2843 20.9073 72.8448 20.4677C72.4052 20.0282 71.8091 19.7812 71.1875 19.7812H36.8125C36.1909 19.7812 35.5948 20.0282 35.1552 20.4677C34.7157 20.9073 34.4688 21.5034 34.4688 22.125V65.875C34.4688 66.4966 34.7157 67.0927 35.1552 67.5323C35.5948 67.9718 36.1909 68.2188 36.8125 68.2188ZM66.5 65.5516V61.9688C66.5 61.7616 66.5823 61.5628 66.7288 61.4163C66.8753 61.2698 67.0741 61.1875 67.2812 61.1875H70.8641L66.5 65.5516ZM36.0312 22.125C36.0312 21.9178 36.1136 21.7191 36.2601 21.5726C36.4066 21.4261 36.6053 21.3438 36.8125 21.3438H71.1875C71.3947 21.3438 71.5934 21.4261 71.7399 21.5726C71.8864 21.7191 71.9688 21.9178 71.9688 22.125V59.625H67.2812C66.6596 59.625 66.0635 59.8719 65.624 60.3115C65.1844 60.751 64.9375 61.3471 64.9375 61.9688V66.6562H36.8125C36.6053 66.6562 36.4066 66.5739 36.2601 66.4274C36.1136 66.2809 36.0312 66.0822 36.0312 65.875V22.125Z" fill="#4123D0"/>
<path d="M61.8125 35.4062H60.25V36.9688H61.8125V35.4062Z" fill="#4123D0"/>
<path d="M46.1875 35.4062H44.625V36.9688H46.1875V35.4062Z" fill="#4123D0"/>
<defs>
<filter id="filter0_d_94_1456" x="0" y="0" width="107.379" height="100" filterUnits="userSpaceOnUse" color-interpolation-filters="sRGB">
<feFlood flood-opacity="0" result="BackgroundImageFix"/>
<feColorMatrix in="SourceAlpha" type="matrix" values="0 0 0 0 0 0 0 0 0 0 0 0 0 0 0 0 0 0 127 0" result="hardAlpha"/>
<feOffset dy="4"/>
<feGaussianBlur stdDeviation="2"/>
<feComposite in2="hardAlpha" operator="out"/>
<feColorMatrix type="matrix" values="0 0 0 0 0 0 0 0 0 0 0 0 0 0 0 0 0 0 0.05 0"/>
<feBlend mode="normal" in2="BackgroundImageFix" result="effect1_dropShadow_94_1456"/>
<feBlend mode="normal" in="SourceGraphic" in2="effect1_dropShadow_94_1456" result="shape"/>
</filter>
</defs>
</svg>
