<svg width="16" height="15" viewBox="0 0 16 15" fill="none" xmlns="http://www.w3.org/2000/svg">
<g clip-path="url(#clip0_227_1854)">
<path d="M7.8269 15C11.969 15 15.3269 11.6421 15.3269 7.5C15.3269 3.35786 11.969 0 7.8269 0C3.68477 0 0.326904 3.35786 0.326904 7.5C0.326904 11.6421 3.68477 15 7.8269 15Z" fill="#4123D0"/>
<path d="M7.82741 3.43555C8.86616 3.43555 9.90491 3.83242 10.6999 4.6268C11.0777 5.00381 11.3775 5.45163 11.582 5.94465C11.7866 6.43766 11.8918 6.96617 11.8918 7.49992C11.8918 8.03368 11.7866 8.56219 11.582 9.0552C11.3775 9.54822 11.0777 9.99604 10.6999 10.3731C10.3229 10.7509 9.87507 11.0507 9.38206 11.2552C8.88905 11.4597 8.36054 11.565 7.82678 11.565C7.29303 11.565 6.76452 11.4597 6.2715 11.2552C5.77849 11.0507 5.33066 10.7509 4.95366 10.3731C4.57582 9.99604 4.27606 9.54822 4.07153 9.0552C3.867 8.56219 3.76172 8.03368 3.76172 7.49992C3.76172 6.96617 3.867 6.43766 4.07153 5.94465C4.27606 5.45163 4.57582 5.00381 4.95366 4.6268C5.33055 4.24868 5.77846 3.94878 6.27163 3.74435C6.76481 3.53991 7.29354 3.43497 7.82741 3.43555ZM9.67741 6.2493C9.61824 6.25497 9.5619 6.27729 9.51491 6.31367L7.23116 8.02618L6.17303 6.96867C5.94366 6.72992 5.49178 7.18117 5.73116 7.41055L6.98116 8.66055C7.03535 8.71179 7.10559 8.74271 7.17998 8.74807C7.25437 8.75342 7.32832 8.73288 7.38928 8.68992L9.88928 6.81492C10.0993 6.6618 9.96991 6.25367 9.70991 6.24992C9.69929 6.24938 9.68802 6.24876 9.67741 6.2493Z" fill="white"/>
</g>
<defs>
<clipPath id="clip0_227_1854">
<rect width="15" height="15" fill="white" transform="translate(0.326904)"/>
</clipPath>
</defs>
</svg>
