<svg width="140" height="150" viewBox="0 0 140 150" fill="none" xmlns="http://www.w3.org/2000/svg">
<g opacity="0.2">
<path d="M-5.16129 2.20588C-5.16129 3.42416 -6.24447 4.41176 -7.58065 4.41176C-8.91682 4.41176 -10 3.42416 -10 2.20588C-10 0.987607 -8.91682 0 -7.58065 0C-6.24447 0 -5.16129 0.987607 -5.16129 2.20588Z" fill="white"/>
<path d="M9.35484 2.20588C9.35484 3.42416 8.27166 4.41176 6.93548 4.41176C5.59931 4.41176 4.51613 3.42416 4.51613 2.20588C4.51613 0.987607 5.59931 0 6.93548 0C8.27166 0 9.35484 0.987607 9.35484 2.20588Z" fill="white"/>
<path d="M23.871 2.20588C23.871 3.42416 22.7878 4.41176 21.4516 4.41176C20.1154 4.41176 19.0323 3.42416 19.0323 2.20588C19.0323 0.987607 20.1154 0 21.4516 0C22.7878 0 23.871 0.987607 23.871 2.20588Z" fill="white"/>
<path d="M38.3871 2.20588C38.3871 3.42416 37.3039 4.41176 35.9677 4.41176C34.6316 4.41176 33.5484 3.42416 33.5484 2.20588C33.5484 0.987607 34.6316 0 35.9677 0C37.3039 0 38.3871 0.987607 38.3871 2.20588Z" fill="white"/>
<path d="M52.9032 2.20588C52.9032 3.42416 51.82 4.41176 50.4839 4.41176C49.1477 4.41176 48.0645 3.42416 48.0645 2.20588C48.0645 0.987607 49.1477 0 50.4839 0C51.82 0 52.9032 0.987607 52.9032 2.20588Z" fill="white"/>
<path d="M67.4193 2.20588C67.4193 3.42416 66.3362 4.41176 65 4.41176C63.6638 4.41176 62.5806 3.42416 62.5806 2.20588C62.5806 0.987607 63.6638 0 65 0C66.3362 0 67.4193 0.987607 67.4193 2.20588Z" fill="white"/>
<path d="M81.9355 2.20588C81.9355 3.42416 80.8523 4.41176 79.5161 4.41176C78.18 4.41176 77.0968 3.42416 77.0968 2.20588C77.0968 0.987607 78.18 0 79.5161 0C80.8523 0 81.9355 0.987607 81.9355 2.20588Z" fill="white"/>
<path d="M96.4516 2.20588C96.4516 3.42416 95.3684 4.41176 94.0323 4.41176C92.6961 4.41176 91.6129 3.42416 91.6129 2.20588C91.6129 0.987607 92.6961 0 94.0323 0C95.3684 0 96.4516 0.987607 96.4516 2.20588Z" fill="white"/>
<path d="M110.968 2.20588C110.968 3.42416 109.885 4.41176 108.548 4.41176C107.212 4.41176 106.129 3.42416 106.129 2.20588C106.129 0.987607 107.212 0 108.548 0C109.885 0 110.968 0.987607 110.968 2.20588Z" fill="white"/>
<path d="M125.484 2.20588C125.484 3.42416 124.401 4.41176 123.065 4.41176C121.728 4.41176 120.645 3.42416 120.645 2.20588C120.645 0.987607 121.728 0 123.065 0C124.401 0 125.484 0.987607 125.484 2.20588Z" fill="white"/>
<path d="M140 2.20588C140 3.42416 138.917 4.41176 137.581 4.41176C136.244 4.41176 135.161 3.42416 135.161 2.20588C135.161 0.987607 136.244 0 137.581 0C138.917 0 140 0.987607 140 2.20588Z" fill="white"/>
<path d="M-5.16129 15.4412C-5.16129 16.6595 -6.24447 17.6471 -7.58065 17.6471C-8.91682 17.6471 -10 16.6595 -10 15.4412C-10 14.2229 -8.91682 13.2353 -7.58065 13.2353C-6.24447 13.2353 -5.16129 14.2229 -5.16129 15.4412Z" fill="white"/>
<path d="M9.35484 15.4412C9.35484 16.6595 8.27166 17.6471 6.93548 17.6471C5.59931 17.6471 4.51613 16.6595 4.51613 15.4412C4.51613 14.2229 5.59931 13.2353 6.93548 13.2353C8.27166 13.2353 9.35484 14.2229 9.35484 15.4412Z" fill="white"/>
<path d="M23.871 15.4412C23.871 16.6595 22.7878 17.6471 21.4516 17.6471C20.1154 17.6471 19.0323 16.6595 19.0323 15.4412C19.0323 14.2229 20.1154 13.2353 21.4516 13.2353C22.7878 13.2353 23.871 14.2229 23.871 15.4412Z" fill="white"/>
<path d="M38.3871 15.4412C38.3871 16.6595 37.3039 17.6471 35.9677 17.6471C34.6316 17.6471 33.5484 16.6595 33.5484 15.4412C33.5484 14.2229 34.6316 13.2353 35.9677 13.2353C37.3039 13.2353 38.3871 14.2229 38.3871 15.4412Z" fill="white"/>
<path d="M52.9032 15.4412C52.9032 16.6595 51.82 17.6471 50.4839 17.6471C49.1477 17.6471 48.0645 16.6595 48.0645 15.4412C48.0645 14.2229 49.1477 13.2353 50.4839 13.2353C51.82 13.2353 52.9032 14.2229 52.9032 15.4412Z" fill="white"/>
<path d="M67.4193 15.4412C67.4193 16.6595 66.3362 17.6471 65 17.6471C63.6638 17.6471 62.5806 16.6595 62.5806 15.4412C62.5806 14.2229 63.6638 13.2353 65 13.2353C66.3362 13.2353 67.4193 14.2229 67.4193 15.4412Z" fill="white"/>
<path d="M81.9355 15.4412C81.9355 16.6595 80.8523 17.6471 79.5161 17.6471C78.18 17.6471 77.0968 16.6595 77.0968 15.4412C77.0968 14.2229 78.18 13.2353 79.5161 13.2353C80.8523 13.2353 81.9355 14.2229 81.9355 15.4412Z" fill="white"/>
<path d="M96.4516 15.4412C96.4516 16.6595 95.3684 17.6471 94.0323 17.6471C92.6961 17.6471 91.6129 16.6595 91.6129 15.4412C91.6129 14.2229 92.6961 13.2353 94.0323 13.2353C95.3684 13.2353 96.4516 14.2229 96.4516 15.4412Z" fill="white"/>
<path d="M110.968 15.4412C110.968 16.6595 109.885 17.6471 108.548 17.6471C107.212 17.6471 106.129 16.6595 106.129 15.4412C106.129 14.2229 107.212 13.2353 108.548 13.2353C109.885 13.2353 110.968 14.2229 110.968 15.4412Z" fill="white"/>
<path d="M125.484 15.4412C125.484 16.6595 124.401 17.6471 123.065 17.6471C121.728 17.6471 120.645 16.6595 120.645 15.4412C120.645 14.2229 121.728 13.2353 123.065 13.2353C124.401 13.2353 125.484 14.2229 125.484 15.4412Z" fill="white"/>
<path d="M140 15.4412C140 16.6595 138.917 17.6471 137.581 17.6471C136.244 17.6471 135.161 16.6595 135.161 15.4412C135.161 14.2229 136.244 13.2353 137.581 13.2353C138.917 13.2353 140 14.2229 140 15.4412Z" fill="white"/>
<path d="M-5.16129 28.6765C-5.16129 29.8947 -6.24447 30.8824 -7.58065 30.8824C-8.91682 30.8824 -10 29.8947 -10 28.6765C-10 27.4582 -8.91682 26.4706 -7.58065 26.4706C-6.24447 26.4706 -5.16129 27.4582 -5.16129 28.6765Z" fill="white"/>
<path d="M9.35484 28.6765C9.35484 29.8947 8.27166 30.8824 6.93548 30.8824C5.59931 30.8824 4.51613 29.8947 4.51613 28.6765C4.51613 27.4582 5.59931 26.4706 6.93548 26.4706C8.27166 26.4706 9.35484 27.4582 9.35484 28.6765Z" fill="white"/>
<path d="M23.871 28.6765C23.871 29.8947 22.7878 30.8824 21.4516 30.8824C20.1154 30.8824 19.0323 29.8947 19.0323 28.6765C19.0323 27.4582 20.1154 26.4706 21.4516 26.4706C22.7878 26.4706 23.871 27.4582 23.871 28.6765Z" fill="white"/>
<path d="M38.3871 28.6765C38.3871 29.8947 37.3039 30.8824 35.9677 30.8824C34.6316 30.8824 33.5484 29.8947 33.5484 28.6765C33.5484 27.4582 34.6316 26.4706 35.9677 26.4706C37.3039 26.4706 38.3871 27.4582 38.3871 28.6765Z" fill="white"/>
<path d="M52.9032 28.6765C52.9032 29.8947 51.82 30.8824 50.4839 30.8824C49.1477 30.8824 48.0645 29.8947 48.0645 28.6765C48.0645 27.4582 49.1477 26.4706 50.4839 26.4706C51.82 26.4706 52.9032 27.4582 52.9032 28.6765Z" fill="white"/>
<path d="M67.4193 28.6765C67.4193 29.8947 66.3362 30.8824 65 30.8824C63.6638 30.8824 62.5806 29.8947 62.5806 28.6765C62.5806 27.4582 63.6638 26.4706 65 26.4706C66.3362 26.4706 67.4193 27.4582 67.4193 28.6765Z" fill="white"/>
<path d="M81.9355 28.6765C81.9355 29.8947 80.8523 30.8824 79.5161 30.8824C78.18 30.8824 77.0968 29.8947 77.0968 28.6765C77.0968 27.4582 78.18 26.4706 79.5161 26.4706C80.8523 26.4706 81.9355 27.4582 81.9355 28.6765Z" fill="white"/>
<path d="M96.4516 28.6765C96.4516 29.8947 95.3684 30.8824 94.0323 30.8824C92.6961 30.8824 91.6129 29.8947 91.6129 28.6765C91.6129 27.4582 92.6961 26.4706 94.0323 26.4706C95.3684 26.4706 96.4516 27.4582 96.4516 28.6765Z" fill="white"/>
<path d="M110.968 28.6765C110.968 29.8947 109.885 30.8824 108.548 30.8824C107.212 30.8824 106.129 29.8947 106.129 28.6765C106.129 27.4582 107.212 26.4706 108.548 26.4706C109.885 26.4706 110.968 27.4582 110.968 28.6765Z" fill="white"/>
<path d="M125.484 28.6765C125.484 29.8947 124.401 30.8824 123.065 30.8824C121.728 30.8824 120.645 29.8947 120.645 28.6765C120.645 27.4582 121.728 26.4706 123.065 26.4706C124.401 26.4706 125.484 27.4582 125.484 28.6765Z" fill="white"/>
<path d="M140 28.6765C140 29.8947 138.917 30.8824 137.581 30.8824C136.244 30.8824 135.161 29.8947 135.161 28.6765C135.161 27.4582 136.244 26.4706 137.581 26.4706C138.917 26.4706 140 27.4582 140 28.6765Z" fill="white"/>
<path d="M-5.16129 41.9118C-5.16129 43.13 -6.24447 44.1176 -7.58065 44.1176C-8.91682 44.1176 -10 43.13 -10 41.9118C-10 40.6935 -8.91682 39.7059 -7.58065 39.7059C-6.24447 39.7059 -5.16129 40.6935 -5.16129 41.9118Z" fill="white"/>
<path d="M9.35484 41.9118C9.35484 43.13 8.27166 44.1176 6.93548 44.1176C5.59931 44.1176 4.51613 43.13 4.51613 41.9118C4.51613 40.6935 5.59931 39.7059 6.93548 39.7059C8.27166 39.7059 9.35484 40.6935 9.35484 41.9118Z" fill="white"/>
<path d="M23.871 41.9118C23.871 43.13 22.7878 44.1176 21.4516 44.1176C20.1154 44.1176 19.0323 43.13 19.0323 41.9118C19.0323 40.6935 20.1154 39.7059 21.4516 39.7059C22.7878 39.7059 23.871 40.6935 23.871 41.9118Z" fill="white"/>
<path d="M38.3871 41.9118C38.3871 43.13 37.3039 44.1176 35.9677 44.1176C34.6316 44.1176 33.5484 43.13 33.5484 41.9118C33.5484 40.6935 34.6316 39.7059 35.9677 39.7059C37.3039 39.7059 38.3871 40.6935 38.3871 41.9118Z" fill="white"/>
<path d="M52.9032 41.9118C52.9032 43.13 51.82 44.1176 50.4839 44.1176C49.1477 44.1176 48.0645 43.13 48.0645 41.9118C48.0645 40.6935 49.1477 39.7059 50.4839 39.7059C51.82 39.7059 52.9032 40.6935 52.9032 41.9118Z" fill="white"/>
<path d="M67.4193 41.9118C67.4193 43.13 66.3362 44.1176 65 44.1176C63.6638 44.1176 62.5806 43.13 62.5806 41.9118C62.5806 40.6935 63.6638 39.7059 65 39.7059C66.3362 39.7059 67.4193 40.6935 67.4193 41.9118Z" fill="white"/>
<path d="M81.9355 41.9118C81.9355 43.13 80.8523 44.1176 79.5161 44.1176C78.18 44.1176 77.0968 43.13 77.0968 41.9118C77.0968 40.6935 78.18 39.7059 79.5161 39.7059C80.8523 39.7059 81.9355 40.6935 81.9355 41.9118Z" fill="white"/>
<path d="M96.4516 41.9118C96.4516 43.13 95.3684 44.1176 94.0323 44.1176C92.6961 44.1176 91.6129 43.13 91.6129 41.9118C91.6129 40.6935 92.6961 39.7059 94.0323 39.7059C95.3684 39.7059 96.4516 40.6935 96.4516 41.9118Z" fill="white"/>
<path d="M110.968 41.9118C110.968 43.13 109.885 44.1176 108.548 44.1176C107.212 44.1176 106.129 43.13 106.129 41.9118C106.129 40.6935 107.212 39.7059 108.548 39.7059C109.885 39.7059 110.968 40.6935 110.968 41.9118Z" fill="white"/>
<path d="M125.484 41.9118C125.484 43.13 124.401 44.1176 123.065 44.1176C121.728 44.1176 120.645 43.13 120.645 41.9118C120.645 40.6935 121.728 39.7059 123.065 39.7059C124.401 39.7059 125.484 40.6935 125.484 41.9118Z" fill="white"/>
<path d="M140 41.9118C140 43.13 138.917 44.1176 137.581 44.1176C136.244 44.1176 135.161 43.13 135.161 41.9118C135.161 40.6935 136.244 39.7059 137.581 39.7059C138.917 39.7059 140 40.6935 140 41.9118Z" fill="white"/>
<path d="M-5.16129 55.1471C-5.16129 56.3653 -6.24447 57.3529 -7.58065 57.3529C-8.91682 57.3529 -10 56.3653 -10 55.1471C-10 53.9288 -8.91682 52.9412 -7.58065 52.9412C-6.24447 52.9412 -5.16129 53.9288 -5.16129 55.1471Z" fill="white"/>
<path d="M9.35484 55.1471C9.35484 56.3653 8.27166 57.3529 6.93548 57.3529C5.59931 57.3529 4.51613 56.3653 4.51613 55.1471C4.51613 53.9288 5.59931 52.9412 6.93548 52.9412C8.27166 52.9412 9.35484 53.9288 9.35484 55.1471Z" fill="white"/>
<path d="M23.871 55.1471C23.871 56.3653 22.7878 57.3529 21.4516 57.3529C20.1154 57.3529 19.0323 56.3653 19.0323 55.1471C19.0323 53.9288 20.1154 52.9412 21.4516 52.9412C22.7878 52.9412 23.871 53.9288 23.871 55.1471Z" fill="white"/>
<path d="M38.3871 55.1471C38.3871 56.3653 37.3039 57.3529 35.9677 57.3529C34.6316 57.3529 33.5484 56.3653 33.5484 55.1471C33.5484 53.9288 34.6316 52.9412 35.9677 52.9412C37.3039 52.9412 38.3871 53.9288 38.3871 55.1471Z" fill="white"/>
<path d="M52.9032 55.1471C52.9032 56.3653 51.82 57.3529 50.4839 57.3529C49.1477 57.3529 48.0645 56.3653 48.0645 55.1471C48.0645 53.9288 49.1477 52.9412 50.4839 52.9412C51.82 52.9412 52.9032 53.9288 52.9032 55.1471Z" fill="white"/>
<path d="M67.4193 55.1471C67.4193 56.3653 66.3362 57.3529 65 57.3529C63.6638 57.3529 62.5806 56.3653 62.5806 55.1471C62.5806 53.9288 63.6638 52.9412 65 52.9412C66.3362 52.9412 67.4193 53.9288 67.4193 55.1471Z" fill="white"/>
<path d="M81.9355 55.1471C81.9355 56.3653 80.8523 57.3529 79.5161 57.3529C78.18 57.3529 77.0968 56.3653 77.0968 55.1471C77.0968 53.9288 78.18 52.9412 79.5161 52.9412C80.8523 52.9412 81.9355 53.9288 81.9355 55.1471Z" fill="white"/>
<path d="M96.4516 55.1471C96.4516 56.3653 95.3684 57.3529 94.0323 57.3529C92.6961 57.3529 91.6129 56.3653 91.6129 55.1471C91.6129 53.9288 92.6961 52.9412 94.0323 52.9412C95.3684 52.9412 96.4516 53.9288 96.4516 55.1471Z" fill="white"/>
<path d="M110.968 55.1471C110.968 56.3653 109.885 57.3529 108.548 57.3529C107.212 57.3529 106.129 56.3653 106.129 55.1471C106.129 53.9288 107.212 52.9412 108.548 52.9412C109.885 52.9412 110.968 53.9288 110.968 55.1471Z" fill="white"/>
<path d="M125.484 55.1471C125.484 56.3653 124.401 57.3529 123.065 57.3529C121.728 57.3529 120.645 56.3653 120.645 55.1471C120.645 53.9288 121.728 52.9412 123.065 52.9412C124.401 52.9412 125.484 53.9288 125.484 55.1471Z" fill="white"/>
<path d="M140 55.1471C140 56.3653 138.917 57.3529 137.581 57.3529C136.244 57.3529 135.161 56.3653 135.161 55.1471C135.161 53.9288 136.244 52.9412 137.581 52.9412C138.917 52.9412 140 53.9288 140 55.1471Z" fill="white"/>
<path d="M-5.16129 68.3824C-5.16129 69.6006 -6.24447 70.5882 -7.58065 70.5882C-8.91682 70.5882 -10 69.6006 -10 68.3824C-10 67.1641 -8.91682 66.1765 -7.58065 66.1765C-6.24447 66.1765 -5.16129 67.1641 -5.16129 68.3824Z" fill="white"/>
<path d="M9.35484 68.3824C9.35484 69.6006 8.27166 70.5882 6.93548 70.5882C5.59931 70.5882 4.51613 69.6006 4.51613 68.3824C4.51613 67.1641 5.59931 66.1765 6.93548 66.1765C8.27166 66.1765 9.35484 67.1641 9.35484 68.3824Z" fill="white"/>
<path d="M23.871 68.3824C23.871 69.6006 22.7878 70.5882 21.4516 70.5882C20.1154 70.5882 19.0323 69.6006 19.0323 68.3824C19.0323 67.1641 20.1154 66.1765 21.4516 66.1765C22.7878 66.1765 23.871 67.1641 23.871 68.3824Z" fill="white"/>
<path d="M38.3871 68.3824C38.3871 69.6006 37.3039 70.5882 35.9677 70.5882C34.6316 70.5882 33.5484 69.6006 33.5484 68.3824C33.5484 67.1641 34.6316 66.1765 35.9677 66.1765C37.3039 66.1765 38.3871 67.1641 38.3871 68.3824Z" fill="white"/>
<path d="M52.9032 68.3824C52.9032 69.6006 51.82 70.5882 50.4839 70.5882C49.1477 70.5882 48.0645 69.6006 48.0645 68.3824C48.0645 67.1641 49.1477 66.1765 50.4839 66.1765C51.82 66.1765 52.9032 67.1641 52.9032 68.3824Z" fill="white"/>
<path d="M67.4193 68.3824C67.4193 69.6006 66.3362 70.5882 65 70.5882C63.6638 70.5882 62.5806 69.6006 62.5806 68.3824C62.5806 67.1641 63.6638 66.1765 65 66.1765C66.3362 66.1765 67.4193 67.1641 67.4193 68.3824Z" fill="white"/>
<path d="M81.9355 68.3824C81.9355 69.6006 80.8523 70.5882 79.5161 70.5882C78.18 70.5882 77.0968 69.6006 77.0968 68.3824C77.0968 67.1641 78.18 66.1765 79.5161 66.1765C80.8523 66.1765 81.9355 67.1641 81.9355 68.3824Z" fill="white"/>
<path d="M96.4516 68.3824C96.4516 69.6006 95.3684 70.5882 94.0323 70.5882C92.6961 70.5882 91.6129 69.6006 91.6129 68.3824C91.6129 67.1641 92.6961 66.1765 94.0323 66.1765C95.3684 66.1765 96.4516 67.1641 96.4516 68.3824Z" fill="white"/>
<path d="M110.968 68.3824C110.968 69.6006 109.885 70.5882 108.548 70.5882C107.212 70.5882 106.129 69.6006 106.129 68.3824C106.129 67.1641 107.212 66.1765 108.548 66.1765C109.885 66.1765 110.968 67.1641 110.968 68.3824Z" fill="white"/>
<path d="M125.484 68.3824C125.484 69.6006 124.401 70.5882 123.065 70.5882C121.728 70.5882 120.645 69.6006 120.645 68.3824C120.645 67.1641 121.728 66.1765 123.065 66.1765C124.401 66.1765 125.484 67.1641 125.484 68.3824Z" fill="white"/>
<path d="M140 68.3824C140 69.6006 138.917 70.5882 137.581 70.5882C136.244 70.5882 135.161 69.6006 135.161 68.3824C135.161 67.1641 136.244 66.1765 137.581 66.1765C138.917 66.1765 140 67.1641 140 68.3824Z" fill="white"/>
<path d="M-5.16129 81.6176C-5.16129 82.8359 -6.24447 83.8235 -7.58065 83.8235C-8.91682 83.8235 -10 82.8359 -10 81.6176C-10 80.3994 -8.91682 79.4118 -7.58065 79.4118C-6.24447 79.4118 -5.16129 80.3994 -5.16129 81.6176Z" fill="white"/>
<path d="M9.35484 81.6176C9.35484 82.8359 8.27166 83.8235 6.93548 83.8235C5.59931 83.8235 4.51613 82.8359 4.51613 81.6176C4.51613 80.3994 5.59931 79.4118 6.93548 79.4118C8.27166 79.4118 9.35484 80.3994 9.35484 81.6176Z" fill="white"/>
<path d="M23.871 81.6176C23.871 82.8359 22.7878 83.8235 21.4516 83.8235C20.1154 83.8235 19.0323 82.8359 19.0323 81.6176C19.0323 80.3994 20.1154 79.4118 21.4516 79.4118C22.7878 79.4118 23.871 80.3994 23.871 81.6176Z" fill="white"/>
<path d="M38.3871 81.6176C38.3871 82.8359 37.3039 83.8235 35.9677 83.8235C34.6316 83.8235 33.5484 82.8359 33.5484 81.6176C33.5484 80.3994 34.6316 79.4118 35.9677 79.4118C37.3039 79.4118 38.3871 80.3994 38.3871 81.6176Z" fill="white"/>
<path d="M52.9032 81.6176C52.9032 82.8359 51.82 83.8235 50.4839 83.8235C49.1477 83.8235 48.0645 82.8359 48.0645 81.6176C48.0645 80.3994 49.1477 79.4118 50.4839 79.4118C51.82 79.4118 52.9032 80.3994 52.9032 81.6176Z" fill="white"/>
<path d="M67.4193 81.6176C67.4193 82.8359 66.3362 83.8235 65 83.8235C63.6638 83.8235 62.5806 82.8359 62.5806 81.6176C62.5806 80.3994 63.6638 79.4118 65 79.4118C66.3362 79.4118 67.4193 80.3994 67.4193 81.6176Z" fill="white"/>
<path d="M81.9355 81.6176C81.9355 82.8359 80.8523 83.8235 79.5161 83.8235C78.18 83.8235 77.0968 82.8359 77.0968 81.6176C77.0968 80.3994 78.18 79.4118 79.5161 79.4118C80.8523 79.4118 81.9355 80.3994 81.9355 81.6176Z" fill="white"/>
<path d="M96.4516 81.6176C96.4516 82.8359 95.3684 83.8235 94.0323 83.8235C92.6961 83.8235 91.6129 82.8359 91.6129 81.6176C91.6129 80.3994 92.6961 79.4118 94.0323 79.4118C95.3684 79.4118 96.4516 80.3994 96.4516 81.6176Z" fill="white"/>
<path d="M110.968 81.6176C110.968 82.8359 109.885 83.8235 108.548 83.8235C107.212 83.8235 106.129 82.8359 106.129 81.6176C106.129 80.3994 107.212 79.4118 108.548 79.4118C109.885 79.4118 110.968 80.3994 110.968 81.6176Z" fill="white"/>
<path d="M125.484 81.6176C125.484 82.8359 124.401 83.8235 123.065 83.8235C121.728 83.8235 120.645 82.8359 120.645 81.6176C120.645 80.3994 121.728 79.4118 123.065 79.4118C124.401 79.4118 125.484 80.3994 125.484 81.6176Z" fill="white"/>
<path d="M140 81.6176C140 82.8359 138.917 83.8235 137.581 83.8235C136.244 83.8235 135.161 82.8359 135.161 81.6176C135.161 80.3994 136.244 79.4118 137.581 79.4118C138.917 79.4118 140 80.3994 140 81.6176Z" fill="white"/>
<path d="M-5.16129 94.8529C-5.16129 96.0712 -6.24447 97.0588 -7.58065 97.0588C-8.91682 97.0588 -10 96.0712 -10 94.8529C-10 93.6347 -8.91682 92.6471 -7.58065 92.6471C-6.24447 92.6471 -5.16129 93.6347 -5.16129 94.8529Z" fill="white"/>
<path d="M9.35484 94.8529C9.35484 96.0712 8.27166 97.0588 6.93548 97.0588C5.59931 97.0588 4.51613 96.0712 4.51613 94.8529C4.51613 93.6347 5.59931 92.6471 6.93548 92.6471C8.27166 92.6471 9.35484 93.6347 9.35484 94.8529Z" fill="white"/>
<path d="M23.871 94.8529C23.871 96.0712 22.7878 97.0588 21.4516 97.0588C20.1154 97.0588 19.0323 96.0712 19.0323 94.8529C19.0323 93.6347 20.1154 92.6471 21.4516 92.6471C22.7878 92.6471 23.871 93.6347 23.871 94.8529Z" fill="white"/>
<path d="M38.3871 94.8529C38.3871 96.0712 37.3039 97.0588 35.9677 97.0588C34.6316 97.0588 33.5484 96.0712 33.5484 94.8529C33.5484 93.6347 34.6316 92.6471 35.9677 92.6471C37.3039 92.6471 38.3871 93.6347 38.3871 94.8529Z" fill="white"/>
<path d="M52.9032 94.8529C52.9032 96.0712 51.82 97.0588 50.4839 97.0588C49.1477 97.0588 48.0645 96.0712 48.0645 94.8529C48.0645 93.6347 49.1477 92.6471 50.4839 92.6471C51.82 92.6471 52.9032 93.6347 52.9032 94.8529Z" fill="white"/>
<path d="M67.4193 94.8529C67.4193 96.0712 66.3362 97.0588 65 97.0588C63.6638 97.0588 62.5806 96.0712 62.5806 94.8529C62.5806 93.6347 63.6638 92.6471 65 92.6471C66.3362 92.6471 67.4193 93.6347 67.4193 94.8529Z" fill="white"/>
<path d="M81.9355 94.8529C81.9355 96.0712 80.8523 97.0588 79.5161 97.0588C78.18 97.0588 77.0968 96.0712 77.0968 94.8529C77.0968 93.6347 78.18 92.6471 79.5161 92.6471C80.8523 92.6471 81.9355 93.6347 81.9355 94.8529Z" fill="white"/>
<path d="M96.4516 94.8529C96.4516 96.0712 95.3684 97.0588 94.0323 97.0588C92.6961 97.0588 91.6129 96.0712 91.6129 94.8529C91.6129 93.6347 92.6961 92.6471 94.0323 92.6471C95.3684 92.6471 96.4516 93.6347 96.4516 94.8529Z" fill="white"/>
<path d="M110.968 94.8529C110.968 96.0712 109.885 97.0588 108.548 97.0588C107.212 97.0588 106.129 96.0712 106.129 94.8529C106.129 93.6347 107.212 92.6471 108.548 92.6471C109.885 92.6471 110.968 93.6347 110.968 94.8529Z" fill="white"/>
<path d="M125.484 94.8529C125.484 96.0712 124.401 97.0588 123.065 97.0588C121.728 97.0588 120.645 96.0712 120.645 94.8529C120.645 93.6347 121.728 92.6471 123.065 92.6471C124.401 92.6471 125.484 93.6347 125.484 94.8529Z" fill="white"/>
<path d="M140 94.8529C140 96.0712 138.917 97.0588 137.581 97.0588C136.244 97.0588 135.161 96.0712 135.161 94.8529C135.161 93.6347 136.244 92.6471 137.581 92.6471C138.917 92.6471 140 93.6347 140 94.8529Z" fill="white"/>
<path d="M-5.16129 108.088C-5.16129 109.307 -6.24447 110.294 -7.58065 110.294C-8.91682 110.294 -10 109.307 -10 108.088C-10 106.87 -8.91682 105.882 -7.58065 105.882C-6.24447 105.882 -5.16129 106.87 -5.16129 108.088Z" fill="white"/>
<path d="M9.35484 108.088C9.35484 109.307 8.27166 110.294 6.93548 110.294C5.59931 110.294 4.51613 109.307 4.51613 108.088C4.51613 106.87 5.59931 105.882 6.93548 105.882C8.27166 105.882 9.35484 106.87 9.35484 108.088Z" fill="white"/>
<path d="M23.871 108.088C23.871 109.307 22.7878 110.294 21.4516 110.294C20.1154 110.294 19.0323 109.307 19.0323 108.088C19.0323 106.87 20.1154 105.882 21.4516 105.882C22.7878 105.882 23.871 106.87 23.871 108.088Z" fill="white"/>
<path d="M38.3871 108.088C38.3871 109.307 37.3039 110.294 35.9677 110.294C34.6316 110.294 33.5484 109.307 33.5484 108.088C33.5484 106.87 34.6316 105.882 35.9677 105.882C37.3039 105.882 38.3871 106.87 38.3871 108.088Z" fill="white"/>
<path d="M52.9032 108.088C52.9032 109.307 51.82 110.294 50.4839 110.294C49.1477 110.294 48.0645 109.307 48.0645 108.088C48.0645 106.87 49.1477 105.882 50.4839 105.882C51.82 105.882 52.9032 106.87 52.9032 108.088Z" fill="white"/>
<path d="M67.4193 108.088C67.4193 109.307 66.3362 110.294 65 110.294C63.6638 110.294 62.5806 109.307 62.5806 108.088C62.5806 106.87 63.6638 105.882 65 105.882C66.3362 105.882 67.4193 106.87 67.4193 108.088Z" fill="white"/>
<path d="M81.9355 108.088C81.9355 109.307 80.8523 110.294 79.5161 110.294C78.18 110.294 77.0968 109.307 77.0968 108.088C77.0968 106.87 78.18 105.882 79.5161 105.882C80.8523 105.882 81.9355 106.87 81.9355 108.088Z" fill="white"/>
<path d="M96.4516 108.088C96.4516 109.307 95.3684 110.294 94.0323 110.294C92.6961 110.294 91.6129 109.307 91.6129 108.088C91.6129 106.87 92.6961 105.882 94.0323 105.882C95.3684 105.882 96.4516 106.87 96.4516 108.088Z" fill="white"/>
<path d="M110.968 108.088C110.968 109.307 109.885 110.294 108.548 110.294C107.212 110.294 106.129 109.307 106.129 108.088C106.129 106.87 107.212 105.882 108.548 105.882C109.885 105.882 110.968 106.87 110.968 108.088Z" fill="white"/>
<path d="M125.484 108.088C125.484 109.307 124.401 110.294 123.065 110.294C121.728 110.294 120.645 109.307 120.645 108.088C120.645 106.87 121.728 105.882 123.065 105.882C124.401 105.882 125.484 106.87 125.484 108.088Z" fill="white"/>
<path d="M140 108.088C140 109.307 138.917 110.294 137.581 110.294C136.244 110.294 135.161 109.307 135.161 108.088C135.161 106.87 136.244 105.882 137.581 105.882C138.917 105.882 140 106.87 140 108.088Z" fill="white"/>
<path d="M-5.16129 121.324C-5.16129 122.542 -6.24447 123.529 -7.58065 123.529C-8.91682 123.529 -10 122.542 -10 121.324C-10 120.105 -8.91682 119.118 -7.58065 119.118C-6.24447 119.118 -5.16129 120.105 -5.16129 121.324Z" fill="white"/>
<path d="M9.35484 121.324C9.35484 122.542 8.27166 123.529 6.93548 123.529C5.59931 123.529 4.51613 122.542 4.51613 121.324C4.51613 120.105 5.59931 119.118 6.93548 119.118C8.27166 119.118 9.35484 120.105 9.35484 121.324Z" fill="white"/>
<path d="M23.871 121.324C23.871 122.542 22.7878 123.529 21.4516 123.529C20.1154 123.529 19.0323 122.542 19.0323 121.324C19.0323 120.105 20.1154 119.118 21.4516 119.118C22.7878 119.118 23.871 120.105 23.871 121.324Z" fill="white"/>
<path d="M38.3871 121.324C38.3871 122.542 37.3039 123.529 35.9677 123.529C34.6316 123.529 33.5484 122.542 33.5484 121.324C33.5484 120.105 34.6316 119.118 35.9677 119.118C37.3039 119.118 38.3871 120.105 38.3871 121.324Z" fill="white"/>
<path d="M52.9032 121.324C52.9032 122.542 51.82 123.529 50.4839 123.529C49.1477 123.529 48.0645 122.542 48.0645 121.324C48.0645 120.105 49.1477 119.118 50.4839 119.118C51.82 119.118 52.9032 120.105 52.9032 121.324Z" fill="white"/>
<path d="M67.4193 121.324C67.4193 122.542 66.3362 123.529 65 123.529C63.6638 123.529 62.5806 122.542 62.5806 121.324C62.5806 120.105 63.6638 119.118 65 119.118C66.3362 119.118 67.4193 120.105 67.4193 121.324Z" fill="white"/>
<path d="M81.9355 121.324C81.9355 122.542 80.8523 123.529 79.5161 123.529C78.18 123.529 77.0968 122.542 77.0968 121.324C77.0968 120.105 78.18 119.118 79.5161 119.118C80.8523 119.118 81.9355 120.105 81.9355 121.324Z" fill="white"/>
<path d="M96.4516 121.324C96.4516 122.542 95.3684 123.529 94.0323 123.529C92.6961 123.529 91.6129 122.542 91.6129 121.324C91.6129 120.105 92.6961 119.118 94.0323 119.118C95.3684 119.118 96.4516 120.105 96.4516 121.324Z" fill="white"/>
<path d="M110.968 121.324C110.968 122.542 109.885 123.529 108.548 123.529C107.212 123.529 106.129 122.542 106.129 121.324C106.129 120.105 107.212 119.118 108.548 119.118C109.885 119.118 110.968 120.105 110.968 121.324Z" fill="white"/>
<path d="M125.484 121.324C125.484 122.542 124.401 123.529 123.065 123.529C121.728 123.529 120.645 122.542 120.645 121.324C120.645 120.105 121.728 119.118 123.065 119.118C124.401 119.118 125.484 120.105 125.484 121.324Z" fill="white"/>
<path d="M140 121.324C140 122.542 138.917 123.529 137.581 123.529C136.244 123.529 135.161 122.542 135.161 121.324C135.161 120.105 136.244 119.118 137.581 119.118C138.917 119.118 140 120.105 140 121.324Z" fill="white"/>
<path d="M-5.16129 134.559C-5.16129 135.777 -6.24447 136.765 -7.58065 136.765C-8.91682 136.765 -10 135.777 -10 134.559C-10 133.341 -8.91682 132.353 -7.58065 132.353C-6.24447 132.353 -5.16129 133.341 -5.16129 134.559Z" fill="white"/>
<path d="M9.35484 134.559C9.35484 135.777 8.27166 136.765 6.93548 136.765C5.59931 136.765 4.51613 135.777 4.51613 134.559C4.51613 133.341 5.59931 132.353 6.93548 132.353C8.27166 132.353 9.35484 133.341 9.35484 134.559Z" fill="white"/>
<path d="M23.871 134.559C23.871 135.777 22.7878 136.765 21.4516 136.765C20.1154 136.765 19.0323 135.777 19.0323 134.559C19.0323 133.341 20.1154 132.353 21.4516 132.353C22.7878 132.353 23.871 133.341 23.871 134.559Z" fill="white"/>
<path d="M38.3871 134.559C38.3871 135.777 37.3039 136.765 35.9677 136.765C34.6316 136.765 33.5484 135.777 33.5484 134.559C33.5484 133.341 34.6316 132.353 35.9677 132.353C37.3039 132.353 38.3871 133.341 38.3871 134.559Z" fill="white"/>
<path d="M52.9032 134.559C52.9032 135.777 51.82 136.765 50.4839 136.765C49.1477 136.765 48.0645 135.777 48.0645 134.559C48.0645 133.341 49.1477 132.353 50.4839 132.353C51.82 132.353 52.9032 133.341 52.9032 134.559Z" fill="white"/>
<path d="M67.4193 134.559C67.4193 135.777 66.3362 136.765 65 136.765C63.6638 136.765 62.5806 135.777 62.5806 134.559C62.5806 133.341 63.6638 132.353 65 132.353C66.3362 132.353 67.4193 133.341 67.4193 134.559Z" fill="white"/>
<path d="M81.9355 134.559C81.9355 135.777 80.8523 136.765 79.5161 136.765C78.18 136.765 77.0968 135.777 77.0968 134.559C77.0968 133.341 78.18 132.353 79.5161 132.353C80.8523 132.353 81.9355 133.341 81.9355 134.559Z" fill="white"/>
<path d="M96.4516 134.559C96.4516 135.777 95.3684 136.765 94.0323 136.765C92.6961 136.765 91.6129 135.777 91.6129 134.559C91.6129 133.341 92.6961 132.353 94.0323 132.353C95.3684 132.353 96.4516 133.341 96.4516 134.559Z" fill="white"/>
<path d="M110.968 134.559C110.968 135.777 109.885 136.765 108.548 136.765C107.212 136.765 106.129 135.777 106.129 134.559C106.129 133.341 107.212 132.353 108.548 132.353C109.885 132.353 110.968 133.341 110.968 134.559Z" fill="white"/>
<path d="M125.484 134.559C125.484 135.777 124.401 136.765 123.065 136.765C121.728 136.765 120.645 135.777 120.645 134.559C120.645 133.341 121.728 132.353 123.065 132.353C124.401 132.353 125.484 133.341 125.484 134.559Z" fill="white"/>
<path d="M140 134.559C140 135.777 138.917 136.765 137.581 136.765C136.244 136.765 135.161 135.777 135.161 134.559C135.161 133.341 136.244 132.353 137.581 132.353C138.917 132.353 140 133.341 140 134.559Z" fill="white"/>
<path d="M-5.16129 147.794C-5.16129 149.012 -6.24447 150 -7.58065 150C-8.91682 150 -10 149.012 -10 147.794C-10 146.576 -8.91682 145.588 -7.58065 145.588C-6.24447 145.588 -5.16129 146.576 -5.16129 147.794Z" fill="white"/>
<path d="M9.35484 147.794C9.35484 149.012 8.27166 150 6.93548 150C5.59931 150 4.51613 149.012 4.51613 147.794C4.51613 146.576 5.59931 145.588 6.93548 145.588C8.27166 145.588 9.35484 146.576 9.35484 147.794Z" fill="white"/>
<path d="M23.871 147.794C23.871 149.012 22.7878 150 21.4516 150C20.1154 150 19.0323 149.012 19.0323 147.794C19.0323 146.576 20.1154 145.588 21.4516 145.588C22.7878 145.588 23.871 146.576 23.871 147.794Z" fill="white"/>
<path d="M38.3871 147.794C38.3871 149.012 37.3039 150 35.9677 150C34.6316 150 33.5484 149.012 33.5484 147.794C33.5484 146.576 34.6316 145.588 35.9677 145.588C37.3039 145.588 38.3871 146.576 38.3871 147.794Z" fill="white"/>
<path d="M52.9032 147.794C52.9032 149.012 51.82 150 50.4839 150C49.1477 150 48.0645 149.012 48.0645 147.794C48.0645 146.576 49.1477 145.588 50.4839 145.588C51.82 145.588 52.9032 146.576 52.9032 147.794Z" fill="white"/>
<path d="M67.4193 147.794C67.4193 149.012 66.3362 150 65 150C63.6638 150 62.5806 149.012 62.5806 147.794C62.5806 146.576 63.6638 145.588 65 145.588C66.3362 145.588 67.4193 146.576 67.4193 147.794Z" fill="white"/>
<path d="M81.9355 147.794C81.9355 149.012 80.8523 150 79.5161 150C78.18 150 77.0968 149.012 77.0968 147.794C77.0968 146.576 78.18 145.588 79.5161 145.588C80.8523 145.588 81.9355 146.576 81.9355 147.794Z" fill="white"/>
<path d="M96.4516 147.794C96.4516 149.012 95.3684 150 94.0323 150C92.6961 150 91.6129 149.012 91.6129 147.794C91.6129 146.576 92.6961 145.588 94.0323 145.588C95.3684 145.588 96.4516 146.576 96.4516 147.794Z" fill="white"/>
<path d="M110.968 147.794C110.968 149.012 109.885 150 108.548 150C107.212 150 106.129 149.012 106.129 147.794C106.129 146.576 107.212 145.588 108.548 145.588C109.885 145.588 110.968 146.576 110.968 147.794Z" fill="white"/>
<path d="M125.484 147.794C125.484 149.012 124.401 150 123.065 150C121.728 150 120.645 149.012 120.645 147.794C120.645 146.576 121.728 145.588 123.065 145.588C124.401 145.588 125.484 146.576 125.484 147.794Z" fill="white"/>
<path d="M140 147.794C140 149.012 138.917 150 137.581 150C136.244 150 135.161 149.012 135.161 147.794C135.161 146.576 136.244 145.588 137.581 145.588C138.917 145.588 140 146.576 140 147.794Z" fill="white"/>
</g>
</svg>
