<svg width="108" height="100" viewBox="0 0 108 100" fill="none" xmlns="http://www.w3.org/2000/svg">
<g filter="url(#filter0_d_94_1422)">
<rect x="4" width="99.3789" height="92" rx="10" fill="#4123D0" fill-opacity="0.1" shape-rendering="crispEdges"/>
</g>
<g clip-path="url(#clip0_94_1422)">
<path d="M75.8727 28.0801H32.1275C30.4046 28.0801 29.0029 29.4814 29.0029 31.2047C29.0029 41.6757 29.0029 50.4399 29.0029 60.795C29.0029 62.5183 30.4047 63.9196 32.1275 63.9196H75.8727C77.5956 63.9196 78.9973 62.5183 78.9973 60.795C78.9973 50.2577 78.9973 42.2 78.9973 31.2047C78.9973 29.4814 77.5956 28.0801 75.8727 28.0801ZM32.1275 29.6424H75.8727C76.7343 29.6424 77.435 30.3435 77.435 31.2047V35.9466H30.5652V31.2047C30.5652 30.3435 31.2659 29.6424 32.1275 29.6424ZM75.8727 62.3574H32.1275C31.2659 62.3574 30.5652 61.6563 30.5652 60.7951V37.5112H77.4351V60.7951C77.435 61.6563 76.7343 62.3574 75.8727 62.3574Z" fill="#4123D0" stroke="#4123D0" stroke-width="0.6"/>
<path d="M43.5278 33.577H64.472C64.9033 33.577 65.2531 33.2275 65.2531 32.7958C65.2531 32.3641 64.9033 32.0146 64.472 32.0146H43.5278C43.0965 32.0146 42.7467 32.3641 42.7467 32.7958C42.7467 33.2275 43.0964 33.577 43.5278 33.577ZM39.8768 49.0728C41.5119 49.0728 42.842 47.7424 42.842 46.1075V44.9251C42.842 43.2903 41.5119 41.9599 39.8768 41.9599C38.2416 41.9599 36.9111 43.2902 36.9111 44.9251V46.1075C36.9112 47.7424 38.2416 49.0728 39.8768 49.0728ZM38.4735 44.9251C38.4735 44.1516 39.1029 43.5222 39.8768 43.5222C40.6503 43.5222 41.2797 44.1516 41.2797 44.9251V46.1075C41.2797 46.8811 40.6503 47.5104 39.8768 47.5104C39.1028 47.5104 38.4735 46.8811 38.4735 46.1075V44.9251ZM39.8733 49.7196C36.4928 49.7196 33.7427 52.4728 33.7427 55.8568C33.7427 56.1589 33.9166 56.4336 34.1894 56.5625C37.961 58.3511 41.7899 58.3522 45.5639 56.5625C45.8366 56.4336 46.0105 56.159 46.0105 55.8568C46.0105 52.4728 43.2574 49.7196 39.8733 49.7196ZM35.3313 55.3647C35.577 53.0724 37.5203 51.2819 39.8733 51.2819C42.2298 51.2819 44.1759 53.0724 44.4219 55.3647C41.3686 56.68 38.3847 56.68 35.3313 55.3647ZM49.139 44.2378H58.7971C59.2284 44.2378 59.5782 43.8884 59.5782 43.4566C59.5782 43.0249 59.2284 42.6755 58.7971 42.6755H49.139C48.7076 42.6755 48.3578 43.0249 48.3578 43.4566C48.3578 43.8884 48.7076 44.2378 49.139 44.2378ZM73.476 46.9933H49.139C48.7076 46.9933 48.3578 47.3427 48.3578 47.7744C48.3578 48.2062 48.7076 48.5556 49.139 48.5556H73.476C73.9073 48.5556 74.2571 48.2062 74.2571 47.7744C74.2571 47.3427 73.9073 46.9933 73.476 46.9933ZM49.139 52.8733H58.7971C59.2284 52.8733 59.5782 52.5239 59.5782 52.0922C59.5782 51.6604 59.2284 51.311 58.7971 51.311H49.139C48.7076 51.311 48.3578 51.6604 48.3578 52.0922C48.3578 52.5239 48.7076 52.8733 49.139 52.8733ZM73.476 55.6287H49.139C48.7076 55.6287 48.3578 55.9781 48.3578 56.4099C48.3578 56.8416 48.7076 57.191 49.139 57.191H73.476C73.9073 57.191 74.2571 56.8416 74.2571 56.4099C74.2571 55.9781 73.9073 55.6287 73.476 55.6287Z" fill="#4123D0" stroke="#4123D0" stroke-width="0.6"/>
</g>
<defs>
<filter id="filter0_d_94_1422" x="0" y="0" width="107.379" height="100" filterUnits="userSpaceOnUse" color-interpolation-filters="sRGB">
<feFlood flood-opacity="0" result="BackgroundImageFix"/>
<feColorMatrix in="SourceAlpha" type="matrix" values="0 0 0 0 0 0 0 0 0 0 0 0 0 0 0 0 0 0 127 0" result="hardAlpha"/>
<feOffset dy="4"/>
<feGaussianBlur stdDeviation="2"/>
<feComposite in2="hardAlpha" operator="out"/>
<feColorMatrix type="matrix" values="0 0 0 0 0 0 0 0 0 0 0 0 0 0 0 0 0 0 0.05 0"/>
<feBlend mode="normal" in2="BackgroundImageFix" result="effect1_dropShadow_94_1422"/>
<feBlend mode="normal" in="SourceGraphic" in2="effect1_dropShadow_94_1422" result="shape"/>
</filter>
<clipPath id="clip0_94_1422">
<rect width="50" height="50" fill="white" transform="translate(29 21)"/>
</clipPath>
</defs>
</svg>
