<svg width="120" height="124" viewBox="0 0 120 124" fill="none" xmlns="http://www.w3.org/2000/svg">
<circle cx="60" cy="60" r="60" fill="#E9E9EA"/>
<g filter="url(#filter0_d_1_272)">
<circle cx="59.9999" cy="60.0001" r="55.3846" fill="#4123D0"/>
</g>
<path d="M38.125 35V85H81.875V35H38.125ZM41.25 38.125H78.75V81.875H41.25V38.125ZM44.375 41.25V53.75H56.875V41.25H44.375ZM60 41.25V44.375H75.625V41.25H60ZM47.5 44.375H53.75V50.625H47.5V44.375ZM60 47.5V50.625H75.625V47.5H60ZM44.375 56.875V60H75.625V56.875H44.375ZM44.375 63.125V66.25H60V63.125H44.375ZM69.375 66.25C65.9406 66.25 63.125 69.0656 63.125 72.5C63.125 75.9344 65.9406 78.75 69.375 78.75C72.8094 78.75 75.625 75.9344 75.625 72.5C75.625 69.0656 72.8094 66.25 69.375 66.25ZM44.375 69.375V72.5H60V69.375H44.375ZM69.375 69.375C71.1188 69.375 72.5 70.7562 72.5 72.5C72.5 74.2438 71.1188 75.625 69.375 75.625C67.6313 75.625 66.25 74.2438 66.25 72.5C66.25 70.7562 67.6313 69.375 69.375 69.375ZM44.375 75.625V78.75H60V75.625H44.375Z" fill="white"/>
<defs>
<filter id="filter0_d_1_272" x="0.615234" y="4.61548" width="118.769" height="118.769" filterUnits="userSpaceOnUse" color-interpolation-filters="sRGB">
<feFlood flood-opacity="0" result="BackgroundImageFix"/>
<feColorMatrix in="SourceAlpha" type="matrix" values="0 0 0 0 0 0 0 0 0 0 0 0 0 0 0 0 0 0 127 0" result="hardAlpha"/>
<feOffset dy="4"/>
<feGaussianBlur stdDeviation="2"/>
<feComposite in2="hardAlpha" operator="out"/>
<feColorMatrix type="matrix" values="0 0 0 0 0 0 0 0 0 0 0 0 0 0 0 0 0 0 0.25 0"/>
<feBlend mode="normal" in2="BackgroundImageFix" result="effect1_dropShadow_1_272"/>
<feBlend mode="normal" in="SourceGraphic" in2="effect1_dropShadow_1_272" result="shape"/>
</filter>
</defs>
</svg>
