<svg width="108" height="100" viewBox="0 0 108 100" fill="none" xmlns="http://www.w3.org/2000/svg">
<g filter="url(#filter0_d_94_1433)">
<rect x="4" width="99.3789" height="92" rx="10" fill="#4123D0" fill-opacity="0.1" shape-rendering="crispEdges"/>
</g>
<path d="M52.4376 47.5621C54.5594 47.5597 56.6174 46.8367 58.2745 45.5117C59.9317 44.1867 61.0897 42.3382 61.559 40.269C62.0282 38.1998 61.7809 36.0326 60.8574 34.1224C59.9339 32.2121 58.389 30.6722 56.4759 29.7547C54.5628 28.8372 52.3948 28.5967 50.3271 29.0724C48.2594 29.5482 46.4145 30.7121 45.0947 32.3734C43.775 34.0347 43.0585 36.095 43.0628 38.2168C43.067 40.3385 43.7917 42.3959 45.1181 44.052C45.9962 45.1491 47.1102 46.0344 48.3774 46.6421C49.6445 47.2498 51.0323 47.5642 52.4376 47.5621ZM47.7689 38.9684C47.8016 39.929 47.91 40.8857 48.0931 41.8293C47.3616 42.007 46.6487 42.2543 45.9642 42.5676C45.2348 41.4966 44.7883 40.2584 44.6665 38.9684H47.7689ZM49.3564 45.3582C48.4911 44.9883 47.7002 44.4644 47.022 43.8121C47.497 43.6224 47.9847 43.4657 48.4814 43.3434C48.6973 44.0454 48.9908 44.7212 49.3564 45.3582ZM50.0532 43.0566C51.6345 42.8421 53.2376 42.8421 54.8189 43.0566C54.2048 44.8715 53.297 45.9996 52.4376 45.9996C51.5782 45.9996 50.6704 44.8715 50.0532 43.0566ZM56.3939 43.3426C56.8906 43.4648 57.3782 43.6215 57.8532 43.8113C57.1748 44.4629 56.3839 44.9862 55.5189 45.3559C55.8843 44.7196 56.1777 44.0438 56.3939 43.3426ZM55.5189 31.016C56.3839 31.3862 57.1748 31.91 57.8532 32.5621C57.3781 32.7515 56.8905 32.9081 56.3939 33.0309C56.178 32.3288 55.8845 31.653 55.5189 31.016ZM54.822 33.3184C53.2407 33.5325 51.6377 33.5325 50.0564 33.3184C50.6704 31.5027 51.5821 30.3746 52.4376 30.3746C53.2931 30.3746 54.2048 31.5027 54.822 33.3184ZM48.4814 33.0309C47.9847 32.9083 47.4971 32.7516 47.022 32.5621C47.7003 31.9103 48.4912 31.387 49.3564 31.0176C48.9908 31.6541 48.6974 32.3294 48.4814 33.0309ZM49.6454 34.8355C50.5692 34.9805 51.5025 35.0562 52.4376 35.0621C53.3726 35.0567 54.306 34.9815 55.2298 34.8371C55.4025 35.6836 55.507 36.5426 55.5423 37.4059H49.3306C49.3666 36.5426 49.4719 35.6836 49.6454 34.8371V34.8355ZM55.5446 38.9684C55.5093 39.8318 55.4048 40.6911 55.2321 41.5379C53.3806 41.266 51.4993 41.266 49.6478 41.5379C49.4751 40.6911 49.3706 39.8318 49.3353 38.9684H55.5446ZM58.911 42.5676C58.2265 42.2543 57.5137 42.007 56.7821 41.8293C56.9652 40.8857 57.0737 39.929 57.1064 38.9684H60.2087C60.0869 40.2584 59.6405 41.4966 58.911 42.5676ZM60.2087 37.4059H57.1064C57.0737 36.4452 56.9652 35.4886 56.7821 34.5449C57.5137 34.3673 58.2266 34.1201 58.911 33.8066C59.6405 34.8776 60.0869 36.1158 60.2087 37.4059ZM45.9642 33.8066C46.6486 34.1202 47.3615 34.3674 48.0931 34.5449C47.91 35.4886 47.8016 36.4452 47.7689 37.4059H44.6665C44.7883 36.1158 45.2348 34.8776 45.9642 33.8066Z" fill="#4123D0"/>
<path d="M61.0312 49.9062H43.0625V51.4688H61.0312V49.9062Z" fill="#4123D0"/>
<path d="M51.6562 53.8125H43.0625V55.375H51.6562V53.8125Z" fill="#4123D0"/>
<path d="M61.0312 53.8125H53.2188V55.375H61.0312V53.8125Z" fill="#4123D0"/>
<path d="M43.8438 61.625H46.1875C46.3947 61.625 46.5934 61.5427 46.7399 61.3962C46.8864 61.2497 46.9688 61.051 46.9688 60.8438V57.7188C46.9688 57.5115 46.8864 57.3128 46.7399 57.1663C46.5934 57.0198 46.3947 56.9375 46.1875 56.9375H43.0625C42.8553 56.9375 42.6566 57.0198 42.5101 57.1663C42.3636 57.3128 42.2812 57.5115 42.2812 57.7188V63.1875H43.8438V61.625ZM43.8438 58.5H45.4062V60.0625H43.8438V58.5ZM51.6562 56.9375H48.5312C48.324 56.9375 48.1253 57.0198 47.9788 57.1663C47.8323 57.3128 47.75 57.5115 47.75 57.7188V63.1875H49.3125V61.625H50.875V63.1875H52.4375V57.7188C52.4375 57.5115 52.3552 57.3128 52.2087 57.1663C52.0622 57.0198 51.8635 56.9375 51.6562 56.9375ZM49.3125 60.0625V58.5H50.875V60.0625H49.3125ZM53.2188 57.7188V60.0625C53.2188 60.2697 53.3011 60.4684 53.4476 60.6149C53.5941 60.7614 53.7928 60.8438 54 60.8438H55.5625V61.625H53.2188V63.1875H56.3438C56.551 63.1875 56.7497 63.1052 56.8962 62.9587C57.0427 62.8122 57.125 62.6135 57.125 62.4062V60.0625C57.125 59.8553 57.0427 59.6566 56.8962 59.5101C56.7497 59.3636 56.551 59.2812 56.3438 59.2812H54.7812V58.5H57.125V56.9375H54C53.7928 56.9375 53.5941 57.0198 53.4476 57.1663C53.3011 57.3128 53.2188 57.5115 53.2188 57.7188ZM57.9062 57.7188V60.0625C57.9062 60.2697 57.9886 60.4684 58.1351 60.6149C58.2816 60.7614 58.4803 60.8438 58.6875 60.8438H60.25V61.625H57.9062V63.1875H61.0312C61.2385 63.1875 61.4372 63.1052 61.5837 62.9587C61.7302 62.8122 61.8125 62.6135 61.8125 62.4062V60.0625C61.8125 59.8553 61.7302 59.6566 61.5837 59.5101C61.4372 59.3636 61.2385 59.2812 61.0312 59.2812H59.4688V58.5H61.8125V56.9375H58.6875C58.4803 56.9375 58.2816 57.0198 58.1351 57.1663C57.9886 57.3128 57.9062 57.5115 57.9062 57.7188Z" fill="#4123D0"/>
<path d="M69.625 22.5625H41.5C40.8784 22.5625 40.2823 22.8094 39.8427 23.249C39.4032 23.6885 39.1562 24.2846 39.1562 24.9062C38.3274 24.9062 37.5326 25.2355 36.9465 25.8215C36.3605 26.4076 36.0312 27.2024 36.0312 28.0312V63.9688C36.0312 64.7976 36.3605 65.5924 36.9465 66.1785C37.5326 66.7645 38.3274 67.0938 39.1562 67.0938C39.1562 67.7154 39.4032 68.3115 39.8427 68.751C40.2823 69.1906 40.8784 69.4375 41.5 69.4375H69.625C70.2466 69.4375 70.8427 69.1906 71.2823 68.751C71.7218 68.3115 71.9688 67.7154 71.9688 67.0938V24.9062C71.9688 24.2846 71.7218 23.6885 71.2823 23.249C70.8427 22.8094 70.2466 22.5625 69.625 22.5625ZM37.5938 63.9688V28.0312C37.5938 27.6168 37.7584 27.2194 38.0514 26.9264C38.3444 26.6334 38.7418 26.4688 39.1562 26.4688H65.7188C66.1332 26.4688 66.5306 26.6334 66.8236 26.9264C67.1166 27.2194 67.2812 27.6168 67.2812 28.0312V63.9688C67.2812 64.3832 67.1166 64.7806 66.8236 65.0736C66.5306 65.3666 66.1332 65.5312 65.7188 65.5312H39.1562C38.7418 65.5312 38.3444 65.3666 38.0514 65.0736C37.7584 64.7806 37.5938 64.3832 37.5938 63.9688ZM70.4062 67.0938C70.4062 67.3009 70.3239 67.4997 70.1774 67.6462C70.0309 67.7927 69.8322 67.875 69.625 67.875H41.5C41.2928 67.875 41.0941 67.7927 40.9476 67.6462C40.8011 67.4997 40.7188 67.3009 40.7188 67.0938H65.7188C66.5476 67.0938 67.3424 66.7645 67.9285 66.1785C68.5145 65.5924 68.8438 64.7976 68.8438 63.9688V28.0312C68.8438 27.2024 68.5145 26.4076 67.9285 25.8215C67.3424 25.2355 66.5476 24.9062 65.7188 24.9062H40.7188C40.7188 24.699 40.8011 24.5003 40.9476 24.3538C41.0941 24.2073 41.2928 24.125 41.5 24.125H69.625C69.8322 24.125 70.0309 24.2073 70.1774 24.3538C70.3239 24.5003 70.4062 24.699 70.4062 24.9062V67.0938Z" fill="#4123D0"/>
<defs>
<filter id="filter0_d_94_1433" x="0" y="0" width="107.379" height="100" filterUnits="userSpaceOnUse" color-interpolation-filters="sRGB">
<feFlood flood-opacity="0" result="BackgroundImageFix"/>
<feColorMatrix in="SourceAlpha" type="matrix" values="0 0 0 0 0 0 0 0 0 0 0 0 0 0 0 0 0 0 127 0" result="hardAlpha"/>
<feOffset dy="4"/>
<feGaussianBlur stdDeviation="2"/>
<feComposite in2="hardAlpha" operator="out"/>
<feColorMatrix type="matrix" values="0 0 0 0 0 0 0 0 0 0 0 0 0 0 0 0 0 0 0.05 0"/>
<feBlend mode="normal" in2="BackgroundImageFix" result="effect1_dropShadow_94_1433"/>
<feBlend mode="normal" in="SourceGraphic" in2="effect1_dropShadow_94_1433" result="shape"/>
</filter>
</defs>
</svg>
