<svg width="101" height="100" viewBox="0 0 101 100" fill="none" xmlns="http://www.w3.org/2000/svg">
<rect x="0.445801" width="99.6264" height="100" rx="10" fill="#4123D0"/>
<path d="M33.1413 69.3164C32.0952 69.3164 31.1997 68.9305 30.4548 68.1587C29.7099 67.387 29.3374 66.4592 29.3374 65.3754V41.7293C29.3374 40.6455 29.7099 39.7177 30.4548 38.946C31.1997 38.1742 32.0952 37.7883 33.1413 37.7883H39.1325L42.6511 33.8473H54.0629V37.7883H44.3153L40.8443 41.7293H33.1413V65.3754H63.5727V47.6408H67.3766V65.3754C67.3766 66.4592 67.0041 67.387 66.2592 68.1587C65.5142 68.9305 64.6187 69.3164 63.5727 69.3164H33.1413ZM63.5727 41.7293V37.7883H59.7687V33.8473H63.5727V29.9062H67.3766V33.8473H71.1805V37.7883H67.3766V41.7293H63.5727ZM48.357 62.4196C50.7344 62.4196 52.7553 61.5575 54.4195 59.8333C56.0837 58.1091 56.9158 56.0155 56.9158 53.5523C56.9158 51.0892 56.0837 48.9955 54.4195 47.2714C52.7553 45.5472 50.7344 44.6851 48.357 44.6851C45.9795 44.6851 43.9587 45.5472 42.2945 47.2714C40.6303 48.9955 39.7982 51.0892 39.7982 53.5523C39.7982 56.0155 40.6303 58.1091 42.2945 59.8333C43.9587 61.5575 45.9795 62.4196 48.357 62.4196ZM48.357 58.4786C47.0256 58.4786 45.9003 58.0024 44.981 57.05C44.0617 56.0976 43.6021 54.9317 43.6021 53.5523C43.6021 52.173 44.0617 51.0071 44.981 50.0547C45.9003 49.1023 47.0256 48.6261 48.357 48.6261C49.6884 48.6261 50.8137 49.1023 51.733 50.0547C52.6522 51.0071 53.1119 52.173 53.1119 53.5523C53.1119 54.9317 52.6522 56.0976 51.733 57.05C50.8137 58.0024 49.6884 58.4786 48.357 58.4786Z" fill="white"/>
</svg>
