<svg width="108" height="100" viewBox="0 0 108 100" fill="none" xmlns="http://www.w3.org/2000/svg">
<g filter="url(#filter0_d_94_1445)">
<rect x="4" width="99.3789" height="92" rx="10" fill="#4123D0" fill-opacity="0.1" shape-rendering="crispEdges"/>
</g>
<path d="M74.0002 34.4602H34.0002C33.788 34.4602 33.5845 34.376 33.4345 34.2259C33.2845 34.0759 33.2002 33.8724 33.2002 33.6602C33.2002 33.4481 33.2845 33.2446 33.4345 33.0946C33.5845 32.9445 33.788 32.8602 34.0002 32.8602H74.0002C74.2124 32.8602 74.4159 32.9445 74.5659 33.0946C74.7159 33.2446 74.8002 33.4481 74.8002 33.6602C74.8002 33.8724 74.7159 34.0759 74.5659 34.2259C74.4159 34.376 74.2124 34.4602 74.0002 34.4602ZM60.8352 31.9232H60.5047C60.2925 31.9232 60.089 31.839 59.939 31.6889C59.789 31.5389 59.7047 31.3354 59.7047 31.1232C59.7047 30.9111 59.789 30.7076 59.939 30.5576C60.089 30.4075 60.2925 30.3232 60.5047 30.3232H60.8352C61.0474 30.3232 61.2509 30.4075 61.4009 30.5576C61.5509 30.7076 61.6352 30.9111 61.6352 31.1232C61.6352 31.3354 61.5509 31.5389 61.4009 31.6889C61.2509 31.839 61.0474 31.9232 60.8352 31.9232ZM64.8362 31.9232H64.5052C64.293 31.9232 64.0895 31.839 63.9395 31.6889C63.7895 31.5389 63.7052 31.3354 63.7052 31.1232C63.7052 30.9111 63.7895 30.7076 63.9395 30.5576C64.0895 30.4075 64.293 30.3232 64.5052 30.3232H64.8362C65.0484 30.3232 65.2519 30.4075 65.4019 30.5576C65.5519 30.7076 65.6362 30.9111 65.6362 31.1232C65.6362 31.3354 65.5519 31.5389 65.4019 31.6889C65.2519 31.839 65.0484 31.9232 64.8362 31.9232ZM68.8367 31.9232H68.5057C68.2935 31.9232 68.09 31.839 67.94 31.6889C67.79 31.5389 67.7057 31.3354 67.7057 31.1232C67.7057 30.9111 67.79 30.7076 67.94 30.5576C68.09 30.4075 68.2935 30.3232 68.5057 30.3232H68.8367C69.0489 30.3232 69.2523 30.4075 69.4024 30.5576C69.5524 30.7076 69.6367 30.9111 69.6367 31.1232C69.6367 31.3354 69.5524 31.5389 69.4024 31.6889C69.2523 31.839 69.0489 31.9232 68.8367 31.9232ZM70.1672 39.5277H59.8777C59.6655 39.5277 59.462 39.4435 59.312 39.2934C59.162 39.1434 59.0777 38.9399 59.0777 38.7277C59.0777 38.5156 59.162 38.3121 59.312 38.1621C59.462 38.012 59.6655 37.9277 59.8777 37.9277H70.1672C70.3794 37.9277 70.5828 38.012 70.7329 38.1621C70.8829 38.3121 70.9672 38.5156 70.9672 38.7277C70.9672 38.9399 70.8829 39.1434 70.7329 39.2934C70.5828 39.4435 70.3794 39.5277 70.1672 39.5277ZM70.1672 43.6107H59.8777C59.6655 43.6107 59.462 43.5265 59.312 43.3764C59.162 43.2264 59.0777 43.0229 59.0777 42.8107C59.0777 42.5986 59.162 42.3951 59.312 42.2451C59.462 42.095 59.6655 42.0107 59.8777 42.0107H70.1672C70.3794 42.0107 70.5828 42.095 70.7329 42.2451C70.8829 42.3951 70.9672 42.5986 70.9672 42.8107C70.9672 43.0229 70.8829 43.2264 70.7329 43.3764C70.5828 43.5265 70.3794 43.6107 70.1672 43.6107ZM70.1672 47.6937H59.8777C59.6655 47.6937 59.462 47.6095 59.312 47.4594C59.162 47.3094 59.0777 47.1059 59.0777 46.8937C59.0777 46.6816 59.162 46.4781 59.312 46.3281C59.462 46.178 59.6655 46.0937 59.8777 46.0937H70.1672C70.3794 46.0937 70.5828 46.178 70.7329 46.3281C70.8829 46.4781 70.9672 46.6816 70.9672 46.8937C70.9672 47.1059 70.8829 47.3094 70.7329 47.4594C70.5828 47.6095 70.3794 47.6937 70.1672 47.6937ZM70.1672 51.7772H59.8777C59.6655 51.7772 59.462 51.693 59.312 51.5429C59.162 51.3929 59.0777 51.1894 59.0777 50.9772C59.0777 50.7651 59.162 50.5616 59.312 50.4116C59.462 50.2615 59.6655 50.1772 59.8777 50.1772H70.1672C70.3794 50.1772 70.5828 50.2615 70.7329 50.4116C70.8829 50.5616 70.9672 50.7651 70.9672 50.9772C70.9672 51.1894 70.8829 51.3929 70.7329 51.5429C70.5828 51.693 70.3794 51.7772 70.1672 51.7772ZM56.8142 45.3162C56.6231 45.3166 56.4383 45.2481 56.2937 45.1232L47.3237 37.4232L38.3542 45.1232C38.2748 45.1936 38.1822 45.2475 38.0818 45.2817C37.9813 45.316 37.8751 45.3299 37.7693 45.3227C37.6634 45.3155 37.5601 45.2873 37.4652 45.2398C37.3703 45.1923 37.2859 45.1263 37.2167 45.0459C37.1476 44.9654 37.0952 44.872 37.0625 44.771C37.0298 44.6701 37.0175 44.5636 37.0263 44.4579C37.0352 44.3522 37.065 44.2493 37.114 44.1552C37.1629 44.0611 37.2302 43.9776 37.3117 43.9097L46.8027 35.7597C46.9478 35.6351 47.1327 35.5666 47.3239 35.5666C47.5152 35.5666 47.7001 35.6351 47.8452 35.7597L57.3357 43.9097C57.4595 44.0162 57.5478 44.1581 57.5886 44.3162C57.6294 44.4744 57.6209 44.6412 57.5641 44.7944C57.5073 44.9475 57.405 45.0796 57.271 45.1729C57.1369 45.2662 56.9775 45.3162 56.8142 45.3162Z" fill="#4123D0"/>
<path d="M55.2927 54.1382H39.3552C39.143 54.1382 38.9395 54.0539 38.7895 53.9038C38.6395 53.7538 38.5552 53.5503 38.5552 53.3382V43.2102C38.5552 42.998 38.6395 42.7945 38.7895 42.6445C38.9395 42.4944 39.143 42.4102 39.3552 42.4102C39.5673 42.4102 39.7708 42.4944 39.9209 42.6445C40.0709 42.7945 40.1552 42.998 40.1552 43.2102V52.5382H55.2927C55.5048 52.5382 55.7083 52.6224 55.8584 52.7725C56.0084 52.9225 56.0927 53.126 56.0927 53.3382C56.0927 53.5503 56.0084 53.7538 55.8584 53.9038C55.7083 54.0539 55.5048 54.1382 55.2927 54.1382Z" fill="#4123D0"/>
<path d="M55.2927 54.1382C55.0805 54.1382 54.877 54.0539 54.727 53.9038C54.577 53.7538 54.4927 53.5503 54.4927 53.3382V43.2102C54.4927 42.998 54.577 42.7945 54.727 42.6445C54.877 42.4944 55.0805 42.4102 55.2927 42.4102C55.5049 42.4102 55.7084 42.4944 55.8584 42.6445C56.0084 42.7945 56.0927 42.998 56.0927 43.2102V53.3382C56.0927 53.5503 56.0084 53.7538 55.8584 53.9038C55.7084 54.0539 55.5049 54.1382 55.2927 54.1382ZM49.9187 54.1377C49.7065 54.1377 49.503 54.0534 49.353 53.9033C49.203 53.7533 49.1187 53.5498 49.1187 53.3377V46.8377H45.5292V53.3377C45.5292 53.5498 45.4449 53.7533 45.2949 53.9033C45.1449 54.0534 44.9414 54.1377 44.7292 54.1377C44.517 54.1377 44.3135 54.0534 44.1635 53.9033C44.0135 53.7533 43.9292 53.5498 43.9292 53.3377V46.0377C43.9292 45.8255 44.0135 45.622 44.1635 45.472C44.3135 45.3219 44.517 45.2377 44.7292 45.2377H49.9187C50.1309 45.2377 50.3344 45.3219 50.4844 45.472C50.6344 45.622 50.7187 45.8255 50.7187 46.0377V53.3377C50.7187 53.5498 50.6344 53.7533 50.4844 53.9033C50.3344 54.0534 50.1309 54.1377 49.9187 54.1377Z" fill="#4123D0"/>
<path d="M54 42.9003C53.7878 42.9003 53.5843 42.816 53.4343 42.666C53.2843 42.5159 53.2 42.3125 53.2 42.1003V37.4213H52.4V40.0413C52.4 40.2535 52.3157 40.4569 52.1657 40.607C52.0156 40.757 51.8122 40.8413 51.6 40.8413C51.3878 40.8413 51.1843 40.757 51.0343 40.607C50.8843 40.4569 50.8 40.2535 50.8 40.0413V36.6213C50.8 36.4091 50.8843 36.2056 51.0343 36.0556C51.1843 35.9056 51.3878 35.8213 51.6 35.8213H54C54.2122 35.8213 54.4156 35.9056 54.5657 36.0556C54.7157 36.2056 54.8 36.4091 54.8 36.6213V42.1003C54.8 42.3125 54.7157 42.5159 54.5657 42.666C54.4156 42.816 54.2122 42.9003 54 42.9003ZM47.3235 44.6903C45.8015 44.6903 44.563 43.4778 44.563 41.9873C44.563 40.4968 45.8015 39.2843 47.3235 39.2843C48.8455 39.2843 50.084 40.4968 50.084 41.9873C50.084 43.4778 48.846 44.6903 47.3235 44.6903ZM47.3235 40.8843C46.684 40.8843 46.163 41.3788 46.163 41.9873C46.163 42.5958 46.684 43.0903 47.3235 43.0903C47.963 43.0903 48.484 42.5953 48.484 41.9873C48.484 41.3793 47.9635 40.8843 47.3235 40.8843Z" fill="#4123D0"/>
<path d="M70.5222 56.4686H37.4782C36.344 56.4674 35.2565 56.0163 34.4545 55.2143C33.6525 54.4123 33.2014 53.3249 33.2002 52.1906V32.0641C33.2014 30.9299 33.6525 29.8425 34.4545 29.0404C35.2565 28.2384 36.344 27.7873 37.4782 27.7861H70.5222C71.6564 27.7873 72.7439 28.2384 73.5459 29.0404C74.3479 29.8425 74.799 30.9299 74.8002 32.0641V52.1906C74.799 53.3249 74.3479 54.4123 73.5459 55.2143C72.7439 56.0163 71.6564 56.4674 70.5222 56.4686ZM37.4782 29.3861C36.7682 29.3869 36.0875 29.6693 35.5854 30.1714C35.0834 30.6734 34.801 31.3541 34.8002 32.0641V52.1906C34.801 52.9006 35.0834 53.5813 35.5854 54.0834C36.0875 54.5854 36.7682 54.8678 37.4782 54.8686H70.5222C71.2322 54.8678 71.9129 54.5854 72.4149 54.0834C72.917 53.5813 73.1994 52.9006 73.2002 52.1906V32.0641C73.1994 31.3541 72.917 30.6734 72.4149 30.1714C71.9129 29.6693 71.2322 29.3869 70.5222 29.3861H37.4782ZM61.8242 64.2131H46.1742C45.791 64.2121 45.4238 64.0594 45.1529 63.7884C44.8819 63.5175 44.7292 63.1503 44.7282 62.7671V60.7996C44.7292 60.4165 44.8819 60.0493 45.1529 59.7783C45.4238 59.5074 45.791 59.3547 46.1742 59.3536H61.8242C62.2074 59.3547 62.5746 59.5074 62.8455 59.7783C63.1165 60.0493 63.2691 60.4165 63.2702 60.7996V62.7656C63.2695 63.1491 63.117 63.5166 62.846 63.7879C62.575 64.0592 62.2076 64.2121 61.8242 64.2131ZM46.3302 62.6131H61.6702V60.9551H46.3302V62.6131Z" fill="#4123D0"/>
<path d="M60.8722 60.9555C60.7734 60.9554 60.6754 60.9371 60.5832 60.9015C59.4953 60.4813 58.5266 59.8013 57.7618 58.9208C56.997 58.0403 56.4591 56.9861 56.1952 55.85C56.171 55.7476 56.1673 55.6413 56.1842 55.5374C56.2012 55.4334 56.2385 55.3339 56.294 55.2444C56.3495 55.1549 56.4222 55.0773 56.5078 55.016C56.5934 54.9546 56.6902 54.9108 56.7928 54.887C56.8954 54.8631 57.0016 54.8598 57.1055 54.8771C57.2094 54.8945 57.3088 54.9321 57.398 54.988C57.4873 55.0438 57.5647 55.1167 57.6257 55.2026C57.6868 55.2884 57.7302 55.3854 57.7537 55.488C57.9586 56.37 58.3762 57.1885 58.9701 57.872C59.5639 58.5555 60.316 59.0834 61.1607 59.4095C61.3347 59.477 61.4797 59.6031 61.5706 59.7661C61.6614 59.9292 61.6924 60.1188 61.6582 60.3023C61.6239 60.4858 61.5266 60.6515 61.3831 60.7708C61.2396 60.8901 61.0588 60.9554 60.8722 60.9555ZM47.1282 60.9555C46.9415 60.9556 46.7607 60.8903 46.6171 60.771C46.4734 60.6518 46.3761 60.486 46.3417 60.3025C46.3074 60.119 46.3384 59.9293 46.4292 59.7662C46.5201 59.6031 46.6651 59.477 46.8392 59.4095C47.684 59.0835 48.4362 58.5556 49.0301 57.8721C49.6241 57.1886 50.0417 56.3701 50.2467 55.488C50.2701 55.3854 50.3136 55.2884 50.3747 55.2026C50.4357 55.1167 50.5131 55.0438 50.6023 54.988C50.6916 54.9321 50.791 54.8945 50.8949 54.8771C50.9988 54.8598 51.105 54.8631 51.2076 54.887C51.3102 54.9108 51.407 54.9546 51.4926 55.016C51.5782 55.0773 51.6508 55.1549 51.7064 55.2444C51.7619 55.3339 51.7992 55.4334 51.8162 55.5374C51.8331 55.6413 51.8294 55.7476 51.8052 55.85C51.5413 56.986 51.0033 58.0401 50.2384 58.9203C49.4734 59.8006 48.5047 60.4802 47.4167 60.9C47.3248 60.9362 47.227 60.955 47.1282 60.9555Z" fill="#4123D0"/>
<defs>
<filter id="filter0_d_94_1445" x="0" y="0" width="107.379" height="100" filterUnits="userSpaceOnUse" color-interpolation-filters="sRGB">
<feFlood flood-opacity="0" result="BackgroundImageFix"/>
<feColorMatrix in="SourceAlpha" type="matrix" values="0 0 0 0 0 0 0 0 0 0 0 0 0 0 0 0 0 0 127 0" result="hardAlpha"/>
<feOffset dy="4"/>
<feGaussianBlur stdDeviation="2"/>
<feComposite in2="hardAlpha" operator="out"/>
<feColorMatrix type="matrix" values="0 0 0 0 0 0 0 0 0 0 0 0 0 0 0 0 0 0 0.05 0"/>
<feBlend mode="normal" in2="BackgroundImageFix" result="effect1_dropShadow_94_1445"/>
<feBlend mode="normal" in="SourceGraphic" in2="effect1_dropShadow_94_1445" result="shape"/>
</filter>
</defs>
</svg>
