<svg width="108" height="100" viewBox="0 0 108 100" fill="none" xmlns="http://www.w3.org/2000/svg">
<g filter="url(#filter0_d_94_1467)">
<rect x="4" width="99.3789" height="92" rx="10" fill="#4123D0" fill-opacity="0.1" shape-rendering="crispEdges"/>
</g>
<path d="M53.775 21.0031C52.8765 20.9675 51.9934 21.2435 51.275 21.7843C51.274 21.7843 51.2729 21.7843 51.2719 21.7843C50.6853 22.2304 50.2368 22.8333 49.9783 23.5234C49.7198 24.2135 49.6618 24.9626 49.8109 25.6843H46.5938C46.3865 25.6843 46.1878 25.7666 46.0413 25.9131C45.8948 26.0596 45.8125 26.2584 45.8125 26.4656V27.2468H38.7812C38.574 27.2468 38.3753 27.3291 38.2288 27.4756C38.0823 27.6221 38 27.8209 38 28.0281V63.9656C38 64.1728 38.0823 64.3715 38.2288 64.518C38.3753 64.6645 38.574 64.7468 38.7812 64.7468H68.4688C68.676 64.7468 68.8747 64.6645 69.0212 64.518C69.1677 64.3715 69.25 64.1728 69.25 63.9656V28.0281C69.25 27.8209 69.1677 27.6221 69.0212 27.4756C68.8747 27.3291 68.676 27.2468 68.4688 27.2468H61.4375V26.4656C61.4375 26.2584 61.3552 26.0596 61.2087 25.9131C61.0622 25.7666 60.8635 25.6843 60.6562 25.6843H57.4453C57.56 25.1296 57.5523 24.5566 57.4228 24.0052C57.2933 23.4539 57.0452 22.9373 56.6956 22.4917C56.346 22.046 55.9035 21.682 55.3988 21.4249C54.8941 21.1678 54.3394 21.0238 53.7734 21.0031H53.775ZM53.7172 22.5593C54.2406 22.5796 54.7563 22.7765 55.175 23.1452C56.0141 23.8843 56.2125 25.0984 55.6578 26.0687C55.5569 26.2444 55.5281 26.4525 55.5777 26.6489C55.6272 26.8454 55.7512 27.015 55.9234 27.1218C55.9342 27.1294 55.9451 27.1367 55.9563 27.1437C55.9665 27.1491 55.977 27.1543 55.9875 27.1593C55.9993 27.1653 56.0113 27.1711 56.0234 27.1765C56.0307 27.1797 56.038 27.1829 56.0453 27.1859C56.1447 27.2276 56.2516 27.2484 56.3594 27.2468H59.875V27.9031C59.8609 27.9879 59.8609 28.0745 59.875 28.1593V31.0281C59.8609 31.1129 59.8609 31.1995 59.875 31.2843V31.9343H47.375V31.2781C47.3884 31.1953 47.3884 31.1108 47.375 31.0281V28.1531C47.3884 28.0703 47.3884 27.9858 47.375 27.9031V27.2468H50.8906C51.0311 27.2487 51.1695 27.2126 51.2912 27.1424C51.413 27.0723 51.5135 26.9706 51.5823 26.848C51.6511 26.7255 51.6855 26.5867 51.682 26.4463C51.6786 26.3058 51.6373 26.1689 51.5625 26.0499C51.5489 26.0014 51.5305 25.9543 51.5078 25.9093C51.2753 25.4219 51.2188 24.869 51.3479 24.3446C51.4769 23.8202 51.7835 23.3567 52.2156 23.0327C52.6462 22.7069 53.1776 22.5396 53.7172 22.5593ZM39.5625 28.8093H45.8125V30.3718H41.9062C41.699 30.3718 41.5003 30.4541 41.3538 30.6006C41.2073 30.7471 41.125 30.9459 41.125 31.1531V60.8406C41.125 61.0478 41.2073 61.2465 41.3538 61.393C41.5003 61.5395 41.699 61.6218 41.9062 61.6218H65.3438C65.551 61.6218 65.7497 61.5395 65.8962 61.393C66.0427 61.2465 66.125 61.0478 66.125 60.8406V31.1531C66.125 30.9459 66.0427 30.7471 65.8962 30.6006C65.7497 30.4541 65.551 30.3718 65.3438 30.3718H61.4375V28.8093H67.6875V63.1843H39.5625V28.8093ZM42.6875 31.9343H45.8125V32.7156C45.8125 32.9228 45.8948 33.1215 46.0413 33.268C46.1878 33.4145 46.3865 33.4968 46.5938 33.4968H60.6562C60.8635 33.4968 61.0622 33.4145 61.2087 33.268C61.3552 33.1215 61.4375 32.9228 61.4375 32.7156V31.9343H64.5625V60.0593H42.6875V31.9343ZM45.0312 35.0593C44.824 35.0593 44.6253 35.1416 44.4788 35.2881C44.3323 35.4346 44.25 35.6334 44.25 35.8406V42.0906C44.25 42.2978 44.3323 42.4965 44.4788 42.643C44.6253 42.7895 44.824 42.8718 45.0312 42.8718H51.2812C51.4885 42.8718 51.6872 42.7895 51.8337 42.643C51.9802 42.4965 52.0625 42.2978 52.0625 42.0906V35.8406C52.0625 35.6334 51.9802 35.4346 51.8337 35.2881C51.6872 35.1416 51.4885 35.0593 51.2812 35.0593H45.0312ZM54.4187 35.0593C54.2115 35.0593 54.0128 35.1416 53.8663 35.2881C53.7198 35.4346 53.6375 35.6334 53.6375 35.8406C53.6375 36.0478 53.7198 36.2465 53.8663 36.393C54.0128 36.5395 54.2115 36.6218 54.4187 36.6218H62.2031C62.4103 36.6218 62.609 36.5395 62.7556 36.393C62.9021 36.2465 62.9844 36.0478 62.9844 35.8406C62.9844 35.6334 62.9021 35.4346 62.7556 35.2881C62.609 35.1416 62.4103 35.0593 62.2031 35.0593H54.4187ZM45.8125 36.6218H50.5V41.3093H45.8125V36.6218ZM54.4187 38.1843C54.2115 38.1843 54.0128 38.2666 53.8663 38.4131C53.7198 38.5596 53.6375 38.7584 53.6375 38.9656C53.6375 39.1728 53.7198 39.3715 53.8663 39.518C54.0128 39.6645 54.2115 39.7468 54.4187 39.7468H62.2031C62.4103 39.7468 62.609 39.6645 62.7556 39.518C62.9021 39.3715 62.9844 39.1728 62.9844 38.9656C62.9844 38.7584 62.9021 38.5596 62.7556 38.4131C62.609 38.2666 62.4103 38.1843 62.2031 38.1843H54.4187ZM54.4187 41.3093C54.2115 41.3093 54.0128 41.3916 53.8663 41.5381C53.7198 41.6846 53.6375 41.8834 53.6375 42.0906C53.6375 42.2978 53.7198 42.4965 53.8663 42.643C54.0128 42.7895 54.2115 42.8718 54.4187 42.8718H62.2031C62.4103 42.8718 62.609 42.7895 62.7556 42.643C62.9021 42.4965 62.9844 42.2978 62.9844 42.0906C62.9844 41.8834 62.9021 41.6846 62.7556 41.5381C62.609 41.3916 62.4103 41.3093 62.2031 41.3093H54.4187ZM45.05 44.4343C44.8428 44.4343 44.6441 44.5166 44.4976 44.6631C44.3511 44.8096 44.2688 45.0084 44.2688 45.2156C44.2688 45.4228 44.3511 45.6215 44.4976 45.768C44.6441 45.9145 44.8428 45.9968 45.05 45.9968H62.2C62.4072 45.9968 62.6059 45.9145 62.7524 45.768C62.8989 45.6215 62.9813 45.4228 62.9813 45.2156C62.9813 45.0084 62.8989 44.8096 62.7524 44.6631C62.6059 44.5166 62.4072 44.4343 62.2 44.4343H45.05ZM45.05 47.5593C44.8428 47.5593 44.6441 47.6416 44.4976 47.7881C44.3511 47.9346 44.2688 48.1334 44.2688 48.3406C44.2688 48.5478 44.3511 48.7465 44.4976 48.893C44.6441 49.0395 44.8428 49.1218 45.05 49.1218H62.2C62.4072 49.1218 62.6059 49.0395 62.7524 48.893C62.8989 48.7465 62.9813 48.5478 62.9813 48.3406C62.9813 48.1334 62.8989 47.9346 62.7524 47.7881C62.6059 47.6416 62.4072 47.5593 62.2 47.5593H45.05ZM45.0438 50.6843C44.8366 50.6843 44.6378 50.7666 44.4913 50.9131C44.3448 51.0596 44.2625 51.2584 44.2625 51.4656C44.2625 51.6728 44.3448 51.8715 44.4913 52.018C44.6378 52.1645 44.8366 52.2468 45.0438 52.2468H51.2422C51.4494 52.2468 51.6481 52.1645 51.7946 52.018C51.9411 51.8715 52.0234 51.6728 52.0234 51.4656C52.0234 51.2584 51.9411 51.0596 51.7946 50.9131C51.6481 50.7666 51.4494 50.6843 51.2422 50.6843H45.0438ZM57.5281 56.9343C57.3209 56.9343 57.1222 57.0166 56.9757 57.1631C56.8292 57.3096 56.7469 57.5084 56.7469 57.7156C56.7469 57.9228 56.8292 58.1215 56.9757 58.268C57.1222 58.4145 57.3209 58.4968 57.5281 58.4968H62.2469C62.4541 58.4968 62.6528 58.4145 62.7993 58.268C62.9458 58.1215 63.0281 57.9228 63.0281 57.7156C63.0281 57.5084 62.9458 57.3096 62.7993 57.1631C62.6528 57.0166 62.4541 56.9343 62.2469 56.9343H57.5281Z" fill="#4123D0"/>
<defs>
<filter id="filter0_d_94_1467" x="0" y="0" width="107.379" height="100" filterUnits="userSpaceOnUse" color-interpolation-filters="sRGB">
<feFlood flood-opacity="0" result="BackgroundImageFix"/>
<feColorMatrix in="SourceAlpha" type="matrix" values="0 0 0 0 0 0 0 0 0 0 0 0 0 0 0 0 0 0 127 0" result="hardAlpha"/>
<feOffset dy="4"/>
<feGaussianBlur stdDeviation="2"/>
<feComposite in2="hardAlpha" operator="out"/>
<feColorMatrix type="matrix" values="0 0 0 0 0 0 0 0 0 0 0 0 0 0 0 0 0 0 0.05 0"/>
<feBlend mode="normal" in2="BackgroundImageFix" result="effect1_dropShadow_94_1467"/>
<feBlend mode="normal" in="SourceGraphic" in2="effect1_dropShadow_94_1467" result="shape"/>
</filter>
</defs>
</svg>
